<mxfile host="Electron" agent="Mozilla/5.0 (Windows NT 10.0; Win64; x64) AppleWebKit/537.36 (KHTML, like Gecko) draw.io/27.0.9 Chrome/134.0.6998.205 Electron/35.4.0 Safari/537.36" version="27.0.9">
  <diagram name="第 1 页" id="PrhXpalI99mnSL0RMzUF">
    <mxGraphModel dx="3711" dy="3587" grid="0" gridSize="10" guides="0" tooltips="1" connect="1" arrows="1" fold="1" page="0" pageScale="1" pageWidth="827" pageHeight="1169" math="0" shadow="0">
      <root>
        <mxCell id="0" />
        <mxCell id="1" parent="0" />
        <mxCell id="UlnXxGRV-r5DWmq6DCOY-94" value="" style="rounded=0;whiteSpace=wrap;html=1;fillColor=#dae8fc;strokeColor=#6c8ebf;gradientColor=#7ea6e0;opacity=40;" vertex="1" parent="1">
          <mxGeometry x="5545" y="1359" width="897" height="632" as="geometry" />
        </mxCell>
        <mxCell id="UlnXxGRV-r5DWmq6DCOY-93" value="" style="rounded=0;whiteSpace=wrap;html=1;fillColor=#d5e8d4;strokeColor=#82b366;gradientColor=#97d077;opacity=40;" vertex="1" parent="1">
          <mxGeometry x="4628" y="1359" width="916" height="632" as="geometry" />
        </mxCell>
        <mxCell id="jRM6XPv-YSylesxCgWWN-1" value="技能id" style="rounded=1;whiteSpace=wrap;html=1;" parent="1" vertex="1">
          <mxGeometry x="154" y="318" width="120" height="60" as="geometry" />
        </mxCell>
        <mxCell id="jRM6XPv-YSylesxCgWWN-2" value="技能介绍" style="rounded=1;whiteSpace=wrap;html=1;" parent="1" vertex="1">
          <mxGeometry x="275" y="317" width="120" height="60" as="geometry" />
        </mxCell>
        <mxCell id="jRM6XPv-YSylesxCgWWN-3" value="索敌" style="rounded=1;whiteSpace=wrap;html=1;fillColor=#fff2cc;strokeColor=#d6b656;" parent="1" vertex="1">
          <mxGeometry x="395" y="317" width="120" height="60" as="geometry" />
        </mxCell>
        <mxCell id="jRM6XPv-YSylesxCgWWN-4" value="其他信息" style="rounded=1;whiteSpace=wrap;html=1;" parent="1" vertex="1">
          <mxGeometry x="638" y="320" width="120" height="60" as="geometry" />
        </mxCell>
        <mxCell id="jRM6XPv-YSylesxCgWWN-5" value="打击点" style="rounded=1;whiteSpace=wrap;html=1;fillColor=#dae8fc;strokeColor=#6c8ebf;" parent="1" vertex="1">
          <mxGeometry x="758" y="320" width="120" height="60" as="geometry" />
        </mxCell>
        <mxCell id="jRM6XPv-YSylesxCgWWN-9" style="edgeStyle=orthogonalEdgeStyle;rounded=0;orthogonalLoop=1;jettySize=auto;html=1;entryX=0.5;entryY=1;entryDx=0;entryDy=0;" parent="1" source="jRM6XPv-YSylesxCgWWN-6" target="jRM6XPv-YSylesxCgWWN-3" edge="1">
          <mxGeometry relative="1" as="geometry" />
        </mxCell>
        <mxCell id="jRM6XPv-YSylesxCgWWN-6" value="&lt;br&gt;&lt;table style=&quot;border-collapse:collapse;width:294.77pt;&quot; height=&quot;126&quot; width=&quot;393&quot; cellspacing=&quot;0&quot; cellpadding=&quot;0&quot; border=&quot;0&quot;&gt; &lt;colgroup&gt;&lt;col style=&quot;width:54.00pt;&quot; width=&quot;72&quot;&gt;&lt;/colgroup&gt; &lt;colgroup&gt;&lt;col style=&quot;width:240.75pt;&quot; width=&quot;321&quot;&gt;&lt;/colgroup&gt; &lt;tbody&gt;&lt;tr style=&quot;height:13.50pt;&quot; height=&quot;18&quot;&gt;  &lt;td style=&quot;height:13.50pt;width:54.00pt;&quot; align=&quot;right&quot; width=&quot;72&quot; height=&quot;18&quot;&gt;1&lt;/td&gt;  &lt;td style=&quot;width:240.75pt;&quot; width=&quot;321&quot;&gt;选择自己&lt;/td&gt; &lt;/tr&gt; &lt;tr style=&quot;height:13.50pt;&quot; height=&quot;18&quot;&gt;  &lt;td style=&quot;height:13.50pt;&quot; align=&quot;right&quot; height=&quot;18&quot;&gt;2&lt;/td&gt;  &lt;td&gt;选择扇形范围内最近敌人&lt;/td&gt; &lt;/tr&gt; &lt;tr style=&quot;height:13.50pt;&quot; height=&quot;18&quot;&gt;  &lt;td style=&quot;height:13.50pt;&quot; align=&quot;right&quot; height=&quot;18&quot;&gt;3&lt;/td&gt;  &lt;td&gt;选择扇形范围内血量最低敌人&lt;/td&gt; &lt;/tr&gt; &lt;tr style=&quot;height:13.50pt;&quot; height=&quot;18&quot;&gt;  &lt;td style=&quot;height:13.50pt;&quot; align=&quot;right&quot; height=&quot;18&quot;&gt;4&lt;/td&gt;  &lt;td&gt;选择自己的召唤物&lt;/td&gt; &lt;/tr&gt; &lt;tr style=&quot;height:13.50pt;&quot; height=&quot;18&quot;&gt;  &lt;td style=&quot;height:13.50pt;&quot; align=&quot;right&quot; height=&quot;18&quot;&gt;5&lt;/td&gt;  &lt;td&gt;选择距离最近队友&lt;/td&gt; &lt;/tr&gt; &lt;tr style=&quot;height:13.50pt;&quot; height=&quot;18&quot;&gt;  &lt;td style=&quot;height:13.50pt;&quot; align=&quot;right&quot; height=&quot;18&quot;&gt;6&lt;/td&gt;  &lt;td&gt;选择伤害最低的最有&lt;/td&gt; &lt;/tr&gt; &lt;tr style=&quot;height:13.50pt;&quot; height=&quot;18&quot;&gt;  &lt;td style=&quot;height:13.50pt;&quot; align=&quot;right&quot; height=&quot;18&quot;&gt;7&lt;/td&gt;  &lt;td&gt;选择我面朝方向N米的点&lt;/td&gt; &lt;/tr&gt;&lt;/tbody&gt;&lt;/table&gt;" style="rounded=1;whiteSpace=wrap;html=1;fillColor=#fff2cc;strokeColor=#d6b656;" parent="1" vertex="1">
          <mxGeometry x="247" y="580" width="350" height="160" as="geometry" />
        </mxCell>
        <mxCell id="jRM6XPv-YSylesxCgWWN-10" value="打击点" style="rounded=1;whiteSpace=wrap;html=1;fillColor=#dae8fc;strokeColor=#6c8ebf;" parent="1" vertex="1">
          <mxGeometry x="878" y="320" width="120" height="60" as="geometry" />
        </mxCell>
        <mxCell id="jRM6XPv-YSylesxCgWWN-11" value="打击点" style="rounded=1;whiteSpace=wrap;html=1;fillColor=#dae8fc;strokeColor=#6c8ebf;" parent="1" vertex="1">
          <mxGeometry x="998" y="320" width="120" height="60" as="geometry" />
        </mxCell>
        <mxCell id="jRM6XPv-YSylesxCgWWN-12" value="打击点" style="rounded=1;whiteSpace=wrap;html=1;fillColor=#dae8fc;strokeColor=#6c8ebf;" parent="1" vertex="1">
          <mxGeometry x="1118" y="320" width="120" height="60" as="geometry" />
        </mxCell>
        <mxCell id="jRM6XPv-YSylesxCgWWN-16" style="edgeStyle=orthogonalEdgeStyle;rounded=0;orthogonalLoop=1;jettySize=auto;html=1;" parent="1" source="jRM6XPv-YSylesxCgWWN-13" edge="1">
          <mxGeometry relative="1" as="geometry">
            <mxPoint x="1058" y="380" as="targetPoint" />
          </mxGeometry>
        </mxCell>
        <mxCell id="jRM6XPv-YSylesxCgWWN-13" value="打击效果" style="rounded=1;whiteSpace=wrap;html=1;fillColor=#d5e8d4;strokeColor=#82b366;" parent="1" vertex="1">
          <mxGeometry x="1058" y="480" width="120" height="60" as="geometry" />
        </mxCell>
        <mxCell id="jRM6XPv-YSylesxCgWWN-15" style="edgeStyle=orthogonalEdgeStyle;rounded=0;orthogonalLoop=1;jettySize=auto;html=1;entryX=0.5;entryY=1;entryDx=0;entryDy=0;" parent="1" source="jRM6XPv-YSylesxCgWWN-14" target="jRM6XPv-YSylesxCgWWN-11" edge="1">
          <mxGeometry relative="1" as="geometry" />
        </mxCell>
        <mxCell id="jRM6XPv-YSylesxCgWWN-14" value="选敌" style="rounded=1;whiteSpace=wrap;html=1;fillColor=#e1d5e7;strokeColor=#9673a6;" parent="1" vertex="1">
          <mxGeometry x="938" y="480" width="120" height="60" as="geometry" />
        </mxCell>
        <mxCell id="jRM6XPv-YSylesxCgWWN-18" style="edgeStyle=orthogonalEdgeStyle;rounded=0;orthogonalLoop=1;jettySize=auto;html=1;entryX=0.5;entryY=1;entryDx=0;entryDy=0;" parent="1" source="jRM6XPv-YSylesxCgWWN-17" target="jRM6XPv-YSylesxCgWWN-14" edge="1">
          <mxGeometry relative="1" as="geometry" />
        </mxCell>
        <mxCell id="jRM6XPv-YSylesxCgWWN-17" value="&lt;br&gt;&lt;table style=&quot;border-collapse:collapse;width:186.03pt;&quot; height=&quot;126&quot; width=&quot;248&quot; cellspacing=&quot;0&quot; cellpadding=&quot;0&quot; border=&quot;0&quot;&gt; &lt;colgroup&gt;&lt;col style=&quot;width:54.00pt;&quot; width=&quot;72&quot;&gt;&lt;/colgroup&gt; &lt;colgroup&gt;&lt;col style=&quot;width:132.00pt;&quot; width=&quot;176&quot;&gt;&lt;/colgroup&gt; &lt;tbody&gt;&lt;tr style=&quot;height:13.50pt;&quot; height=&quot;18&quot;&gt;  &lt;td style=&quot;height:13.50pt;width:54.00pt;&quot; align=&quot;right&quot; width=&quot;72&quot; height=&quot;18&quot;&gt;1&lt;/td&gt;  &lt;td style=&quot;width:132.00pt;&quot; width=&quot;176&quot;&gt;圆形&lt;/td&gt; &lt;/tr&gt; &lt;tr style=&quot;height:13.50pt;&quot; height=&quot;18&quot;&gt;  &lt;td style=&quot;height:13.50pt;&quot; align=&quot;right&quot; height=&quot;18&quot;&gt;2&lt;/td&gt;  &lt;td&gt;从我到目标矩形&lt;/td&gt; &lt;/tr&gt; &lt;tr style=&quot;height:13.50pt;&quot; height=&quot;18&quot;&gt;  &lt;td style=&quot;height:13.50pt;&quot; align=&quot;right&quot; height=&quot;18&quot;&gt;3&lt;/td&gt;  &lt;td&gt;从我到目标扇形&lt;/td&gt; &lt;/tr&gt; &lt;tr style=&quot;height:13.50pt;&quot; height=&quot;18&quot;&gt;  &lt;td style=&quot;height:13.50pt;&quot; align=&quot;right&quot; height=&quot;18&quot;&gt;4&lt;/td&gt;  &lt;td&gt;选我&lt;/td&gt; &lt;/tr&gt; &lt;tr style=&quot;height:13.50pt;&quot; height=&quot;18&quot;&gt;  &lt;td style=&quot;height:13.50pt;&quot; align=&quot;right&quot; height=&quot;18&quot;&gt;5&lt;/td&gt;  &lt;td&gt;选我的主人&lt;/td&gt; &lt;/tr&gt; &lt;tr style=&quot;height:13.50pt;&quot; height=&quot;18&quot;&gt;  &lt;td style=&quot;height:13.50pt;&quot; align=&quot;right&quot; height=&quot;18&quot;&gt;6&lt;/td&gt;  &lt;td&gt;选我的召唤物&lt;/td&gt; &lt;/tr&gt; &lt;tr style=&quot;height:13.50pt;&quot; height=&quot;18&quot;&gt;  &lt;td style=&quot;height:13.50pt;&quot; align=&quot;right&quot; height=&quot;18&quot;&gt;7&lt;/td&gt;  &lt;td&gt;选Locktarget的目标&lt;/td&gt; &lt;/tr&gt;&lt;/tbody&gt;&lt;/table&gt;" style="rounded=1;whiteSpace=wrap;html=1;fillColor=#e1d5e7;strokeColor=#9673a6;" parent="1" vertex="1">
          <mxGeometry x="868" y="660" width="190" height="160" as="geometry" />
        </mxCell>
        <mxCell id="jRM6XPv-YSylesxCgWWN-20" style="edgeStyle=orthogonalEdgeStyle;rounded=0;orthogonalLoop=1;jettySize=auto;html=1;entryX=0.5;entryY=1;entryDx=0;entryDy=0;" parent="1" source="jRM6XPv-YSylesxCgWWN-19" target="jRM6XPv-YSylesxCgWWN-13" edge="1">
          <mxGeometry relative="1" as="geometry" />
        </mxCell>
        <mxCell id="jRM6XPv-YSylesxCgWWN-19" value="&lt;br&gt;&lt;table style=&quot;border-collapse:collapse;width:108.03pt;&quot; height=&quot;108&quot; width=&quot;144&quot; cellspacing=&quot;0&quot; cellpadding=&quot;0&quot; border=&quot;0&quot;&gt; &lt;colgroup&gt;&lt;col span=&quot;2&quot; style=&quot;width:54.00pt;&quot; width=&quot;72&quot;&gt;&lt;/colgroup&gt; &lt;tbody&gt;&lt;tr style=&quot;height:13.50pt;&quot; height=&quot;18&quot;&gt;  &lt;td style=&quot;height:13.50pt;width:54.00pt;&quot; width=&quot;72&quot; height=&quot;18&quot;&gt;1&lt;/td&gt;  &lt;td style=&quot;width:54.00pt;&quot; width=&quot;72&quot;&gt;伤害&lt;/td&gt; &lt;/tr&gt; &lt;tr style=&quot;height:13.50pt;&quot; height=&quot;18&quot;&gt;  &lt;td style=&quot;height:13.50pt;&quot; height=&quot;18&quot;&gt;2&lt;/td&gt;  &lt;td&gt;buff&lt;/td&gt; &lt;/tr&gt; &lt;tr style=&quot;height:13.50pt;&quot; height=&quot;18&quot;&gt;  &lt;td style=&quot;height:13.50pt;&quot; height=&quot;18&quot;&gt;3&lt;/td&gt;  &lt;td&gt;子弹&lt;/td&gt; &lt;/tr&gt; &lt;tr style=&quot;height:13.50pt;&quot; height=&quot;18&quot;&gt;  &lt;td style=&quot;height:13.50pt;&quot; height=&quot;18&quot;&gt;4&lt;/td&gt;  &lt;td&gt;召唤&lt;/td&gt; &lt;/tr&gt; &lt;tr style=&quot;height:13.50pt;&quot; height=&quot;18&quot;&gt;  &lt;td style=&quot;height:13.50pt;&quot; height=&quot;18&quot;&gt;5&lt;/td&gt;  &lt;td&gt;净化&lt;/td&gt; &lt;/tr&gt; &lt;tr style=&quot;height:13.50pt;&quot; height=&quot;18&quot;&gt;  &lt;td style=&quot;height:13.50pt;&quot; height=&quot;18&quot;&gt;6&lt;/td&gt;  &lt;td&gt;step&lt;/td&gt; &lt;/tr&gt;&lt;/tbody&gt;&lt;/table&gt;" style="rounded=1;whiteSpace=wrap;html=1;align=center;fillColor=#d5e8d4;strokeColor=#82b366;" parent="1" vertex="1">
          <mxGeometry x="1118" y="660" width="170" height="160" as="geometry" />
        </mxCell>
        <mxCell id="jRM6XPv-YSylesxCgWWN-21" value="Fragment" style="rounded=1;whiteSpace=wrap;html=1;" parent="1" vertex="1">
          <mxGeometry x="516" y="318" width="120" height="60" as="geometry" />
        </mxCell>
        <mxCell id="jRM6XPv-YSylesxCgWWN-30" value="执行时间" style="rounded=1;whiteSpace=wrap;html=1;fillColor=#f8cecc;strokeColor=#b85450;" parent="1" vertex="1">
          <mxGeometry x="887" y="482" width="50" height="60" as="geometry" />
        </mxCell>
        <mxCell id="jRM6XPv-YSylesxCgWWN-42" style="edgeStyle=orthogonalEdgeStyle;rounded=0;orthogonalLoop=1;jettySize=auto;html=1;entryX=0;entryY=0.5;entryDx=0;entryDy=0;" parent="1" source="jRM6XPv-YSylesxCgWWN-35" target="jRM6XPv-YSylesxCgWWN-41" edge="1">
          <mxGeometry relative="1" as="geometry" />
        </mxCell>
        <mxCell id="jRM6XPv-YSylesxCgWWN-35" value="CanActivate" style="rounded=1;whiteSpace=wrap;html=1;" parent="1" vertex="1">
          <mxGeometry x="111" y="-529" width="120" height="60" as="geometry" />
        </mxCell>
        <mxCell id="jRM6XPv-YSylesxCgWWN-36" value="冷却等条件" style="rounded=1;whiteSpace=wrap;html=1;" parent="1" vertex="1">
          <mxGeometry x="113" y="-468" width="120" height="37" as="geometry" />
        </mxCell>
        <mxCell id="jRM6XPv-YSylesxCgWWN-40" style="edgeStyle=orthogonalEdgeStyle;rounded=0;orthogonalLoop=1;jettySize=auto;html=1;entryX=0;entryY=0.5;entryDx=0;entryDy=0;" parent="1" source="jRM6XPv-YSylesxCgWWN-39" target="jRM6XPv-YSylesxCgWWN-35" edge="1">
          <mxGeometry relative="1" as="geometry" />
        </mxCell>
        <mxCell id="jRM6XPv-YSylesxCgWWN-39" value="input trigger" style="rounded=1;whiteSpace=wrap;html=1;" parent="1" vertex="1">
          <mxGeometry x="-65" y="-529" width="120" height="60" as="geometry" />
        </mxCell>
        <mxCell id="jRM6XPv-YSylesxCgWWN-50" style="edgeStyle=orthogonalEdgeStyle;rounded=0;orthogonalLoop=1;jettySize=auto;html=1;entryX=0;entryY=0.5;entryDx=0;entryDy=0;" parent="1" source="jRM6XPv-YSylesxCgWWN-41" target="jRM6XPv-YSylesxCgWWN-48" edge="1">
          <mxGeometry relative="1" as="geometry" />
        </mxCell>
        <mxCell id="jRM6XPv-YSylesxCgWWN-41" value="选目标" style="rounded=1;whiteSpace=wrap;html=1;" parent="1" vertex="1">
          <mxGeometry x="291" y="-529" width="201" height="60" as="geometry" />
        </mxCell>
        <mxCell id="jRM6XPv-YSylesxCgWWN-44" value="1. 根据当前锁敌&lt;br&gt;&lt;div style=&quot;&quot;&gt;&lt;span style=&quot;background-color: initial;&quot;&gt;2. 面朝方向扇形范围内最近敌人&lt;/span&gt;&lt;/div&gt;&lt;div style=&quot;&quot;&gt;&lt;span style=&quot;background-color: initial;&quot;&gt;3. 最近队友&lt;/span&gt;&lt;/div&gt;&lt;div style=&quot;&quot;&gt;&lt;span style=&quot;background-color: initial;&quot;&gt;4. 面朝方向前方N米&lt;/span&gt;&lt;/div&gt;&lt;div style=&quot;&quot;&gt;&lt;span style=&quot;background-color: initial;&quot;&gt;5.。。。&lt;/span&gt;&lt;/div&gt;" style="rounded=1;whiteSpace=wrap;html=1;align=left;" parent="1" vertex="1">
          <mxGeometry x="374" y="-468" width="120" height="109" as="geometry" />
        </mxCell>
        <mxCell id="jRM6XPv-YSylesxCgWWN-47" value="1. 选目标Actor&lt;br&gt;2. 选Vector" style="rounded=1;whiteSpace=wrap;html=1;align=left;" parent="1" vertex="1">
          <mxGeometry x="283" y="-469" width="90" height="109" as="geometry" />
        </mxCell>
        <mxCell id="jRM6XPv-YSylesxCgWWN-48" value="释放技能" style="rounded=1;whiteSpace=wrap;html=1;" parent="1" vertex="1">
          <mxGeometry x="569" y="-530" width="1024" height="60" as="geometry" />
        </mxCell>
        <mxCell id="G1yCCOK3VerNwuk-R6xp-45" style="edgeStyle=orthogonalEdgeStyle;rounded=0;orthogonalLoop=1;jettySize=auto;html=1;entryX=0;entryY=0.5;entryDx=0;entryDy=0;" parent="1" source="jRM6XPv-YSylesxCgWWN-49" target="jRM6XPv-YSylesxCgWWN-51" edge="1">
          <mxGeometry relative="1" as="geometry" />
        </mxCell>
        <mxCell id="G1yCCOK3VerNwuk-R6xp-49" style="edgeStyle=orthogonalEdgeStyle;rounded=0;orthogonalLoop=1;jettySize=auto;html=1;" parent="1" source="jRM6XPv-YSylesxCgWWN-49" target="G1yCCOK3VerNwuk-R6xp-48" edge="1">
          <mxGeometry relative="1" as="geometry" />
        </mxCell>
        <mxCell id="G1yCCOK3VerNwuk-R6xp-50" style="edgeStyle=orthogonalEdgeStyle;rounded=0;orthogonalLoop=1;jettySize=auto;html=1;entryX=0;entryY=0.5;entryDx=0;entryDy=0;" parent="1" source="jRM6XPv-YSylesxCgWWN-49" target="G1yCCOK3VerNwuk-R6xp-47" edge="1">
          <mxGeometry relative="1" as="geometry" />
        </mxCell>
        <mxCell id="jRM6XPv-YSylesxCgWWN-49" value="根据条件选择Montage&lt;br&gt;1. 在空中&lt;br&gt;2. 在硬直中&lt;div&gt;3. 在倒地中&lt;br&gt;4. 蓄力N阶段&lt;br&gt;5. 。。。&lt;/div&gt;" style="rounded=1;whiteSpace=wrap;html=1;align=left;" parent="1" vertex="1">
          <mxGeometry x="646" y="-469" width="155" height="117" as="geometry" />
        </mxCell>
        <mxCell id="G1yCCOK3VerNwuk-R6xp-46" style="edgeStyle=orthogonalEdgeStyle;rounded=0;orthogonalLoop=1;jettySize=auto;html=1;entryX=0;entryY=0.5;entryDx=0;entryDy=0;" parent="1" source="jRM6XPv-YSylesxCgWWN-51" target="jRM6XPv-YSylesxCgWWN-67" edge="1">
          <mxGeometry relative="1" as="geometry" />
        </mxCell>
        <mxCell id="jRM6XPv-YSylesxCgWWN-51" value="播放montage C" style="rounded=1;whiteSpace=wrap;html=1;align=center;fillColor=#dae8fc;strokeColor=#6c8ebf;" parent="1" vertex="1">
          <mxGeometry x="903" y="-298" width="502" height="39" as="geometry" />
        </mxCell>
        <mxCell id="jRM6XPv-YSylesxCgWWN-53" value="HitPoint" style="rounded=1;whiteSpace=wrap;html=1;align=center;" parent="1" vertex="1">
          <mxGeometry x="904" y="-221" width="145" height="39" as="geometry" />
        </mxCell>
        <mxCell id="jRM6XPv-YSylesxCgWWN-54" value="CommitAbility" style="rounded=1;whiteSpace=wrap;html=1;align=center;" parent="1" vertex="1">
          <mxGeometry x="1070" y="-220" width="92" height="39" as="geometry" />
        </mxCell>
        <mxCell id="jRM6XPv-YSylesxCgWWN-56" value="HitPoint" style="rounded=1;whiteSpace=wrap;html=1;align=center;" parent="1" vertex="1">
          <mxGeometry x="1235" y="-219" width="141" height="39" as="geometry" />
        </mxCell>
        <mxCell id="jRM6XPv-YSylesxCgWWN-63" style="rounded=0;orthogonalLoop=1;jettySize=auto;html=1;entryX=0.5;entryY=0;entryDx=0;entryDy=0;dashed=1;dashPattern=8 8;" parent="1" source="jRM6XPv-YSylesxCgWWN-57" target="jRM6XPv-YSylesxCgWWN-61" edge="1">
          <mxGeometry relative="1" as="geometry" />
        </mxCell>
        <mxCell id="jRM6XPv-YSylesxCgWWN-57" value="选敌" style="rounded=1;whiteSpace=wrap;html=1;align=center;" parent="1" vertex="1">
          <mxGeometry x="908" y="-181" width="70" height="39" as="geometry" />
        </mxCell>
        <mxCell id="jRM6XPv-YSylesxCgWWN-58" value="打击效果" style="rounded=1;whiteSpace=wrap;html=1;align=center;" parent="1" vertex="1">
          <mxGeometry x="979" y="-181" width="70" height="39" as="geometry" />
        </mxCell>
        <mxCell id="jRM6XPv-YSylesxCgWWN-59" value="选敌" style="rounded=1;whiteSpace=wrap;html=1;align=center;" parent="1" vertex="1">
          <mxGeometry x="1233" y="-180" width="70" height="39" as="geometry" />
        </mxCell>
        <mxCell id="jRM6XPv-YSylesxCgWWN-60" value="打击效果" style="rounded=1;whiteSpace=wrap;html=1;align=center;" parent="1" vertex="1">
          <mxGeometry x="1304" y="-180" width="70" height="39" as="geometry" />
        </mxCell>
        <mxCell id="jRM6XPv-YSylesxCgWWN-61" value="&lt;br&gt;&lt;table border=&quot;0&quot; cellpadding=&quot;0&quot; cellspacing=&quot;0&quot; width=&quot;248&quot; height=&quot;126&quot; style=&quot;border-collapse:collapse;width:186.03pt;&quot;&gt; &lt;colgroup&gt;&lt;col width=&quot;72&quot; style=&quot;width:54.00pt;&quot;&gt;&lt;/colgroup&gt; &lt;colgroup&gt;&lt;col width=&quot;176&quot; style=&quot;width:132.00pt;&quot;&gt;&lt;/colgroup&gt; &lt;tbody&gt;&lt;tr height=&quot;18&quot; style=&quot;height:13.50pt;&quot;&gt;  &lt;td height=&quot;18&quot; width=&quot;72&quot; style=&quot;height:13.50pt;width:54.00pt;&quot;&gt;&lt;span style=&quot;white-space: pre;&quot;&gt;&#x9;&lt;/span&gt;1&lt;/td&gt;  &lt;td width=&quot;176&quot; style=&quot;width:132.00pt;&quot;&gt;圆形&lt;/td&gt; &lt;/tr&gt; &lt;tr height=&quot;18&quot; style=&quot;height:13.50pt;&quot;&gt;  &lt;td height=&quot;18&quot; style=&quot;height:13.50pt;&quot;&gt;&lt;span style=&quot;white-space: pre;&quot;&gt;&#x9;&lt;/span&gt;2&lt;/td&gt;  &lt;td&gt;从我到目标矩形&lt;/td&gt; &lt;/tr&gt; &lt;tr height=&quot;18&quot; style=&quot;height:13.50pt;&quot;&gt;  &lt;td height=&quot;18&quot; style=&quot;height:13.50pt;&quot;&gt;&lt;span style=&quot;white-space: pre;&quot;&gt;&#x9;&lt;/span&gt;3&lt;/td&gt;  &lt;td&gt;从我到目标扇形&lt;/td&gt; &lt;/tr&gt; &lt;tr height=&quot;18&quot; style=&quot;height:13.50pt;&quot;&gt;  &lt;td height=&quot;18&quot; style=&quot;height:13.50pt;&quot;&gt;&lt;span style=&quot;white-space: pre;&quot;&gt;&#x9;&lt;/span&gt;4&lt;/td&gt;  &lt;td&gt;选我&lt;/td&gt; &lt;/tr&gt; &lt;tr height=&quot;18&quot; style=&quot;height:13.50pt;&quot;&gt;  &lt;td height=&quot;18&quot; style=&quot;height:13.50pt;&quot;&gt;&lt;span style=&quot;white-space: pre;&quot;&gt;&#x9;&lt;/span&gt;5&lt;/td&gt;  &lt;td&gt;选我的主人&lt;/td&gt; &lt;/tr&gt; &lt;tr height=&quot;18&quot; style=&quot;height:13.50pt;&quot;&gt;  &lt;td height=&quot;18&quot; style=&quot;height:13.50pt;&quot;&gt;&lt;span style=&quot;white-space: pre;&quot;&gt;&#x9;&lt;/span&gt;6&lt;/td&gt;  &lt;td&gt;选我的召唤物&lt;/td&gt; &lt;/tr&gt; &lt;tr height=&quot;18&quot; style=&quot;height:13.50pt;&quot;&gt;  &lt;td height=&quot;18&quot; style=&quot;height:13.50pt;&quot;&gt;&lt;span style=&quot;white-space: pre;&quot;&gt;&#x9;&lt;/span&gt;7&lt;/td&gt;  &lt;td&gt;选Locktarget的目标&lt;/td&gt; &lt;/tr&gt;&lt;/tbody&gt;&lt;/table&gt;" style="rounded=1;whiteSpace=wrap;html=1;fillColor=#e1d5e7;strokeColor=#9673a6;align=left;" parent="1" vertex="1">
          <mxGeometry x="917" y="-55" width="190" height="160" as="geometry" />
        </mxCell>
        <mxCell id="jRM6XPv-YSylesxCgWWN-62" value="&lt;br&gt;&lt;table style=&quot;border-collapse:collapse;width:108.03pt;&quot; height=&quot;108&quot; width=&quot;144&quot; cellspacing=&quot;0&quot; cellpadding=&quot;0&quot; border=&quot;0&quot;&gt; &lt;colgroup&gt;&lt;col span=&quot;2&quot; style=&quot;width:54.00pt;&quot; width=&quot;72&quot;&gt;&lt;/colgroup&gt; &lt;tbody&gt;&lt;tr style=&quot;height:13.50pt;&quot; height=&quot;18&quot;&gt;  &lt;td style=&quot;height:13.50pt;width:54.00pt;&quot; width=&quot;72&quot; height=&quot;18&quot;&gt;1&lt;/td&gt;  &lt;td style=&quot;width:54.00pt;&quot; width=&quot;72&quot;&gt;伤害&lt;/td&gt; &lt;/tr&gt; &lt;tr style=&quot;height:13.50pt;&quot; height=&quot;18&quot;&gt;  &lt;td style=&quot;height:13.50pt;&quot; height=&quot;18&quot;&gt;2&lt;/td&gt;  &lt;td&gt;buff&lt;/td&gt; &lt;/tr&gt; &lt;tr style=&quot;height:13.50pt;&quot; height=&quot;18&quot;&gt;  &lt;td style=&quot;height:13.50pt;&quot; height=&quot;18&quot;&gt;3&lt;/td&gt;  &lt;td&gt;子弹&lt;/td&gt; &lt;/tr&gt; &lt;tr style=&quot;height:13.50pt;&quot; height=&quot;18&quot;&gt;  &lt;td style=&quot;height:13.50pt;&quot; height=&quot;18&quot;&gt;4&lt;/td&gt;  &lt;td&gt;召唤&lt;/td&gt; &lt;/tr&gt; &lt;tr style=&quot;height:13.50pt;&quot; height=&quot;18&quot;&gt;  &lt;td style=&quot;height:13.50pt;&quot; height=&quot;18&quot;&gt;5&lt;/td&gt;  &lt;td&gt;净化&lt;/td&gt; &lt;/tr&gt; &lt;tr style=&quot;height:13.50pt;&quot; height=&quot;18&quot;&gt;  &lt;td style=&quot;height:13.50pt;&quot; height=&quot;18&quot;&gt;6&lt;/td&gt;  &lt;td&gt;step&lt;/td&gt; &lt;/tr&gt;&lt;/tbody&gt;&lt;/table&gt;" style="rounded=1;whiteSpace=wrap;html=1;align=center;fillColor=#d5e8d4;strokeColor=#82b366;" parent="1" vertex="1">
          <mxGeometry x="1152" y="-56" width="170" height="160" as="geometry" />
        </mxCell>
        <mxCell id="jRM6XPv-YSylesxCgWWN-64" style="rounded=0;orthogonalLoop=1;jettySize=auto;html=1;dashed=1;dashPattern=8 8;exitX=0.5;exitY=1;exitDx=0;exitDy=0;" parent="1" source="jRM6XPv-YSylesxCgWWN-59" edge="1">
          <mxGeometry relative="1" as="geometry">
            <mxPoint x="1042" y="-123" as="sourcePoint" />
            <mxPoint x="1012" y="-60" as="targetPoint" />
          </mxGeometry>
        </mxCell>
        <mxCell id="jRM6XPv-YSylesxCgWWN-65" style="rounded=0;orthogonalLoop=1;jettySize=auto;html=1;dashed=1;dashPattern=8 8;exitX=0.5;exitY=1;exitDx=0;exitDy=0;entryX=0.5;entryY=0;entryDx=0;entryDy=0;" parent="1" source="jRM6XPv-YSylesxCgWWN-58" target="jRM6XPv-YSylesxCgWWN-62" edge="1">
          <mxGeometry relative="1" as="geometry">
            <mxPoint x="1278" y="-131" as="sourcePoint" />
            <mxPoint x="1022" y="-50" as="targetPoint" />
          </mxGeometry>
        </mxCell>
        <mxCell id="jRM6XPv-YSylesxCgWWN-66" style="rounded=0;orthogonalLoop=1;jettySize=auto;html=1;dashed=1;dashPattern=8 8;exitX=0.5;exitY=1;exitDx=0;exitDy=0;entryX=0.5;entryY=0;entryDx=0;entryDy=0;" parent="1" source="jRM6XPv-YSylesxCgWWN-60" target="jRM6XPv-YSylesxCgWWN-62" edge="1">
          <mxGeometry relative="1" as="geometry">
            <mxPoint x="1028" y="-132" as="sourcePoint" />
            <mxPoint x="1247" y="-46" as="targetPoint" />
          </mxGeometry>
        </mxCell>
        <mxCell id="jRM6XPv-YSylesxCgWWN-67" value="EndAbility" style="rounded=1;whiteSpace=wrap;html=1;align=center;fillColor=#f8cecc;strokeColor=#b85450;" parent="1" vertex="1">
          <mxGeometry x="1517" y="-469" width="76" height="41" as="geometry" />
        </mxCell>
        <mxCell id="jRM6XPv-YSylesxCgWWN-68" value="ActivateAbility" style="rounded=1;whiteSpace=wrap;html=1;align=center;fillColor=#d5e8d4;strokeColor=#82b366;" parent="1" vertex="1">
          <mxGeometry x="571" y="-469" width="74" height="41" as="geometry" />
        </mxCell>
        <mxCell id="jRM6XPv-YSylesxCgWWN-69" value="AN" style="rounded=1;whiteSpace=wrap;html=1;align=center;" parent="1" vertex="1">
          <mxGeometry x="903" y="-260" width="144" height="39" as="geometry" />
        </mxCell>
        <mxCell id="jRM6XPv-YSylesxCgWWN-71" value="AN" style="rounded=1;whiteSpace=wrap;html=1;align=center;" parent="1" vertex="1">
          <mxGeometry x="1070" y="-258" width="92" height="39" as="geometry" />
        </mxCell>
        <mxCell id="jRM6XPv-YSylesxCgWWN-72" value="AN" style="rounded=1;whiteSpace=wrap;html=1;align=center;" parent="1" vertex="1">
          <mxGeometry x="1234" y="-258" width="141" height="39" as="geometry" />
        </mxCell>
        <mxCell id="G1yCCOK3VerNwuk-R6xp-35" style="edgeStyle=orthogonalEdgeStyle;rounded=0;orthogonalLoop=1;jettySize=auto;html=1;entryX=0;entryY=0.5;entryDx=0;entryDy=0;" parent="1" source="G1yCCOK3VerNwuk-R6xp-2" edge="1">
          <mxGeometry relative="1" as="geometry">
            <mxPoint x="131" y="-1098" as="targetPoint" />
          </mxGeometry>
        </mxCell>
        <mxCell id="G1yCCOK3VerNwuk-R6xp-2" value="CanActivate" style="rounded=1;whiteSpace=wrap;html=1;" parent="1" vertex="1">
          <mxGeometry x="-40" y="-1127" width="120" height="60" as="geometry" />
        </mxCell>
        <mxCell id="G1yCCOK3VerNwuk-R6xp-3" value="冷却等条件" style="rounded=1;whiteSpace=wrap;html=1;" parent="1" vertex="1">
          <mxGeometry x="-38" y="-1066" width="120" height="37" as="geometry" />
        </mxCell>
        <mxCell id="G1yCCOK3VerNwuk-R6xp-4" style="edgeStyle=orthogonalEdgeStyle;rounded=0;orthogonalLoop=1;jettySize=auto;html=1;entryX=0;entryY=0.5;entryDx=0;entryDy=0;" parent="1" source="G1yCCOK3VerNwuk-R6xp-5" target="G1yCCOK3VerNwuk-R6xp-2" edge="1">
          <mxGeometry relative="1" as="geometry" />
        </mxCell>
        <mxCell id="G1yCCOK3VerNwuk-R6xp-5" value="input trigger" style="rounded=1;whiteSpace=wrap;html=1;" parent="1" vertex="1">
          <mxGeometry x="-216" y="-1127" width="120" height="60" as="geometry" />
        </mxCell>
        <mxCell id="G1yCCOK3VerNwuk-R6xp-10" value="技能A 34" style="rounded=1;whiteSpace=wrap;html=1;" parent="1" vertex="1">
          <mxGeometry x="-38" y="-1240" width="812" height="60" as="geometry" />
        </mxCell>
        <mxCell id="G1yCCOK3VerNwuk-R6xp-44" style="edgeStyle=orthogonalEdgeStyle;rounded=0;orthogonalLoop=1;jettySize=auto;html=1;" parent="1" source="G1yCCOK3VerNwuk-R6xp-31" edge="1">
          <mxGeometry relative="1" as="geometry">
            <mxPoint x="289.70588235294144" y="-1242.5882352941176" as="targetPoint" />
          </mxGeometry>
        </mxCell>
        <mxCell id="G1yCCOK3VerNwuk-R6xp-31" value="Processors&lt;br&gt;1.&lt;br&gt;2.&lt;br&gt;3.&lt;br&gt;4.&lt;br&gt;" style="rounded=1;whiteSpace=wrap;html=1;fillColor=#e1d5e7;strokeColor=#9673a6;" parent="1" vertex="1">
          <mxGeometry x="-24" y="-1434" width="190" height="160" as="geometry" />
        </mxCell>
        <mxCell id="G1yCCOK3VerNwuk-R6xp-43" style="edgeStyle=orthogonalEdgeStyle;rounded=0;orthogonalLoop=1;jettySize=auto;html=1;" parent="1" source="G1yCCOK3VerNwuk-R6xp-32" edge="1">
          <mxGeometry relative="1" as="geometry">
            <mxPoint x="390.8823529411766" y="-1240.2352941176468" as="targetPoint" />
          </mxGeometry>
        </mxCell>
        <mxCell id="G1yCCOK3VerNwuk-R6xp-32" value="ADF&lt;br&gt;1.&amp;nbsp;&lt;br&gt;2.&amp;nbsp;&lt;br&gt;3.&amp;nbsp;&lt;br&gt;4.&amp;nbsp;" style="rounded=1;whiteSpace=wrap;html=1;align=center;fillColor=#d5e8d4;strokeColor=#82b366;" parent="1" vertex="1">
          <mxGeometry x="558" y="-1433" width="170" height="160" as="geometry" />
        </mxCell>
        <mxCell id="G1yCCOK3VerNwuk-R6xp-51" style="edgeStyle=orthogonalEdgeStyle;rounded=0;orthogonalLoop=1;jettySize=auto;html=1;entryX=0;entryY=0.5;entryDx=0;entryDy=0;" parent="1" source="G1yCCOK3VerNwuk-R6xp-47" target="jRM6XPv-YSylesxCgWWN-67" edge="1">
          <mxGeometry relative="1" as="geometry" />
        </mxCell>
        <mxCell id="G1yCCOK3VerNwuk-R6xp-47" value="播放montage A" style="rounded=1;whiteSpace=wrap;html=1;align=center;fillColor=#dae8fc;strokeColor=#6c8ebf;" parent="1" vertex="1">
          <mxGeometry x="900" y="-446" width="502" height="39" as="geometry" />
        </mxCell>
        <mxCell id="G1yCCOK3VerNwuk-R6xp-53" style="edgeStyle=orthogonalEdgeStyle;rounded=0;orthogonalLoop=1;jettySize=auto;html=1;entryX=0;entryY=0.5;entryDx=0;entryDy=0;" parent="1" source="G1yCCOK3VerNwuk-R6xp-48" target="jRM6XPv-YSylesxCgWWN-67" edge="1">
          <mxGeometry relative="1" as="geometry" />
        </mxCell>
        <mxCell id="G1yCCOK3VerNwuk-R6xp-48" value="播放montage B" style="rounded=1;whiteSpace=wrap;html=1;align=center;fillColor=#dae8fc;strokeColor=#6c8ebf;" parent="1" vertex="1">
          <mxGeometry x="901" y="-377" width="502" height="39" as="geometry" />
        </mxCell>
        <mxCell id="G1yCCOK3VerNwuk-R6xp-54" value="技能B&amp;nbsp; 12" style="rounded=1;whiteSpace=wrap;html=1;" parent="1" vertex="1">
          <mxGeometry x="-55" y="-1586" width="812" height="60" as="geometry" />
        </mxCell>
        <mxCell id="G1yCCOK3VerNwuk-R6xp-55" value="技能C&amp;nbsp; 123" style="rounded=1;whiteSpace=wrap;html=1;" parent="1" vertex="1">
          <mxGeometry x="-58" y="-1675" width="812" height="60" as="geometry" />
        </mxCell>
        <mxCell id="G1yCCOK3VerNwuk-R6xp-78" style="edgeStyle=orthogonalEdgeStyle;rounded=0;orthogonalLoop=1;jettySize=auto;html=1;entryX=0;entryY=0.5;entryDx=0;entryDy=0;" parent="1" source="G1yCCOK3VerNwuk-R6xp-79" target="G1yCCOK3VerNwuk-R6xp-84" edge="1">
          <mxGeometry relative="1" as="geometry" />
        </mxCell>
        <mxCell id="G1yCCOK3VerNwuk-R6xp-79" value="CanActivate" style="rounded=1;whiteSpace=wrap;html=1;" parent="1" vertex="1">
          <mxGeometry x="1870" y="-495" width="141" height="60" as="geometry" />
        </mxCell>
        <mxCell id="G1yCCOK3VerNwuk-R6xp-80" value="冷却等条件" style="rounded=1;whiteSpace=wrap;html=1;" parent="1" vertex="1">
          <mxGeometry x="1872" y="-434" width="68" height="37" as="geometry" />
        </mxCell>
        <mxCell id="G1yCCOK3VerNwuk-R6xp-83" style="edgeStyle=orthogonalEdgeStyle;rounded=0;orthogonalLoop=1;jettySize=auto;html=1;entryX=0;entryY=0.5;entryDx=0;entryDy=0;" parent="1" source="G1yCCOK3VerNwuk-R6xp-84" target="G1yCCOK3VerNwuk-R6xp-87" edge="1">
          <mxGeometry relative="1" as="geometry" />
        </mxCell>
        <mxCell id="G1yCCOK3VerNwuk-R6xp-84" value="选目标" style="rounded=1;whiteSpace=wrap;html=1;" parent="1" vertex="1">
          <mxGeometry x="2061" y="-495" width="201" height="60" as="geometry" />
        </mxCell>
        <mxCell id="G1yCCOK3VerNwuk-R6xp-85" value="1. 根据当前锁敌&lt;br&gt;&lt;div style=&quot;&quot;&gt;&lt;span style=&quot;background-color: initial;&quot;&gt;2. 面朝方向扇形范围内最近敌人&lt;/span&gt;&lt;/div&gt;&lt;div style=&quot;&quot;&gt;&lt;span style=&quot;background-color: initial;&quot;&gt;3. 最近队友&lt;/span&gt;&lt;/div&gt;&lt;div style=&quot;&quot;&gt;&lt;span style=&quot;background-color: initial;&quot;&gt;4. 面朝方向前方N米&lt;/span&gt;&lt;/div&gt;&lt;div style=&quot;&quot;&gt;&lt;span style=&quot;background-color: initial;&quot;&gt;5.。。。&lt;/span&gt;&lt;/div&gt;" style="rounded=1;whiteSpace=wrap;html=1;align=left;" parent="1" vertex="1">
          <mxGeometry x="2144" y="-434" width="120" height="109" as="geometry" />
        </mxCell>
        <mxCell id="G1yCCOK3VerNwuk-R6xp-86" value="1. 选人&lt;br&gt;2. 选点" style="rounded=1;whiteSpace=wrap;html=1;align=left;" parent="1" vertex="1">
          <mxGeometry x="2053" y="-435" width="90" height="109" as="geometry" />
        </mxCell>
        <mxCell id="G1yCCOK3VerNwuk-R6xp-87" value="释放技能" style="rounded=1;whiteSpace=wrap;html=1;" parent="1" vertex="1">
          <mxGeometry x="2339" y="-495" width="1024" height="60" as="geometry" />
        </mxCell>
        <mxCell id="G1yCCOK3VerNwuk-R6xp-96" value="HitPoint" style="rounded=1;whiteSpace=wrap;html=1;align=center;" parent="1" vertex="1">
          <mxGeometry x="3004" y="-394" width="141" height="39" as="geometry" />
        </mxCell>
        <mxCell id="G1yCCOK3VerNwuk-R6xp-100" value="选敌" style="rounded=1;whiteSpace=wrap;html=1;align=center;" parent="1" vertex="1">
          <mxGeometry x="3002" y="-355" width="70" height="39" as="geometry" />
        </mxCell>
        <mxCell id="G1yCCOK3VerNwuk-R6xp-101" value="打击效果" style="rounded=1;whiteSpace=wrap;html=1;align=center;" parent="1" vertex="1">
          <mxGeometry x="3073" y="-355" width="70" height="39" as="geometry" />
        </mxCell>
        <mxCell id="G1yCCOK3VerNwuk-R6xp-107" value="End" style="rounded=1;whiteSpace=wrap;html=1;align=center;fillColor=#f8cecc;strokeColor=#b85450;" parent="1" vertex="1">
          <mxGeometry x="3286" y="-435" width="77" height="41" as="geometry" />
        </mxCell>
        <mxCell id="G1yCCOK3VerNwuk-R6xp-108" value="Start" style="rounded=1;whiteSpace=wrap;html=1;align=center;fillColor=#d5e8d4;strokeColor=#82b366;" parent="1" vertex="1">
          <mxGeometry x="2341" y="-435" width="74" height="41" as="geometry" />
        </mxCell>
        <mxCell id="G1yCCOK3VerNwuk-R6xp-113" value="时间轴" style="rounded=1;whiteSpace=wrap;html=1;align=center;fillColor=#dae8fc;strokeColor=#6c8ebf;" parent="1" vertex="1">
          <mxGeometry x="2416" y="-435" width="869" height="40" as="geometry" />
        </mxCell>
        <mxCell id="G1yCCOK3VerNwuk-R6xp-116" value="蓝量" style="rounded=1;whiteSpace=wrap;html=1;" parent="1" vertex="1">
          <mxGeometry x="1943" y="-433" width="68" height="37" as="geometry" />
        </mxCell>
        <mxCell id="G1yCCOK3VerNwuk-R6xp-118" style="edgeStyle=orthogonalEdgeStyle;rounded=0;orthogonalLoop=1;jettySize=auto;html=1;entryX=0;entryY=0.5;entryDx=0;entryDy=0;" parent="1" source="G1yCCOK3VerNwuk-R6xp-119" target="G1yCCOK3VerNwuk-R6xp-122" edge="1">
          <mxGeometry relative="1" as="geometry" />
        </mxCell>
        <mxCell id="G1yCCOK3VerNwuk-R6xp-119" value="CanActivate" style="rounded=1;whiteSpace=wrap;html=1;" parent="1" vertex="1">
          <mxGeometry x="1863" y="221" width="141" height="60" as="geometry" />
        </mxCell>
        <mxCell id="G1yCCOK3VerNwuk-R6xp-120" value="冷却等条件" style="rounded=1;whiteSpace=wrap;html=1;" parent="1" vertex="1">
          <mxGeometry x="1865" y="282" width="68" height="37" as="geometry" />
        </mxCell>
        <mxCell id="G1yCCOK3VerNwuk-R6xp-121" style="edgeStyle=orthogonalEdgeStyle;rounded=0;orthogonalLoop=1;jettySize=auto;html=1;entryX=0;entryY=0.5;entryDx=0;entryDy=0;" parent="1" source="G1yCCOK3VerNwuk-R6xp-122" target="G1yCCOK3VerNwuk-R6xp-125" edge="1">
          <mxGeometry relative="1" as="geometry" />
        </mxCell>
        <mxCell id="G1yCCOK3VerNwuk-R6xp-122" value="选目标" style="rounded=1;whiteSpace=wrap;html=1;" parent="1" vertex="1">
          <mxGeometry x="2054" y="221" width="201" height="60" as="geometry" />
        </mxCell>
        <mxCell id="G1yCCOK3VerNwuk-R6xp-123" value="1. 根据当前锁敌&lt;br&gt;&lt;div style=&quot;&quot;&gt;&lt;span style=&quot;background-color: initial;&quot;&gt;2. 面朝方向扇形范围内最近敌人&lt;/span&gt;&lt;/div&gt;&lt;div style=&quot;&quot;&gt;&lt;span style=&quot;background-color: initial;&quot;&gt;3. 最近队友&lt;/span&gt;&lt;/div&gt;&lt;div style=&quot;&quot;&gt;&lt;span style=&quot;background-color: initial;&quot;&gt;4. 面朝方向前方N米&lt;/span&gt;&lt;/div&gt;&lt;div style=&quot;&quot;&gt;&lt;span style=&quot;background-color: initial;&quot;&gt;5.。。。&lt;/span&gt;&lt;/div&gt;" style="rounded=1;whiteSpace=wrap;html=1;align=left;" parent="1" vertex="1">
          <mxGeometry x="2137" y="282" width="120" height="109" as="geometry" />
        </mxCell>
        <mxCell id="G1yCCOK3VerNwuk-R6xp-124" value="1. 选人&lt;br&gt;2. 选点" style="rounded=1;whiteSpace=wrap;html=1;align=left;" parent="1" vertex="1">
          <mxGeometry x="2046" y="281" width="90" height="109" as="geometry" />
        </mxCell>
        <mxCell id="G1yCCOK3VerNwuk-R6xp-125" value="释放技能" style="rounded=1;whiteSpace=wrap;html=1;" parent="1" vertex="1">
          <mxGeometry x="2332" y="220" width="1024" height="60" as="geometry" />
        </mxCell>
        <mxCell id="G1yCCOK3VerNwuk-R6xp-126" style="edgeStyle=orthogonalEdgeStyle;rounded=0;orthogonalLoop=1;jettySize=auto;html=1;entryX=0;entryY=0.5;entryDx=0;entryDy=0;" parent="1" source="G1yCCOK3VerNwuk-R6xp-129" target="G1yCCOK3VerNwuk-R6xp-131" edge="1">
          <mxGeometry relative="1" as="geometry" />
        </mxCell>
        <mxCell id="G1yCCOK3VerNwuk-R6xp-127" style="edgeStyle=orthogonalEdgeStyle;rounded=0;orthogonalLoop=1;jettySize=auto;html=1;" parent="1" source="G1yCCOK3VerNwuk-R6xp-129" target="G1yCCOK3VerNwuk-R6xp-153" edge="1">
          <mxGeometry relative="1" as="geometry" />
        </mxCell>
        <mxCell id="G1yCCOK3VerNwuk-R6xp-128" style="edgeStyle=orthogonalEdgeStyle;rounded=0;orthogonalLoop=1;jettySize=auto;html=1;entryX=0;entryY=0.5;entryDx=0;entryDy=0;" parent="1" source="G1yCCOK3VerNwuk-R6xp-129" target="G1yCCOK3VerNwuk-R6xp-151" edge="1">
          <mxGeometry relative="1" as="geometry" />
        </mxCell>
        <mxCell id="G1yCCOK3VerNwuk-R6xp-129" value="根据条件选择Montage&lt;br&gt;1. 在空中&lt;br&gt;2. 在硬直中&lt;br&gt;3. 蓄力N阶段&lt;br&gt;4. 。。。" style="rounded=1;whiteSpace=wrap;html=1;align=left;" parent="1" vertex="1">
          <mxGeometry x="2409" y="281" width="155" height="109" as="geometry" />
        </mxCell>
        <mxCell id="G1yCCOK3VerNwuk-R6xp-130" style="edgeStyle=orthogonalEdgeStyle;rounded=0;orthogonalLoop=1;jettySize=auto;html=1;entryX=0;entryY=0.5;entryDx=0;entryDy=0;" parent="1" source="G1yCCOK3VerNwuk-R6xp-131" target="G1yCCOK3VerNwuk-R6xp-145" edge="1">
          <mxGeometry relative="1" as="geometry" />
        </mxCell>
        <mxCell id="G1yCCOK3VerNwuk-R6xp-131" value="播放montage C" style="rounded=1;whiteSpace=wrap;html=1;align=center;fillColor=#dae8fc;strokeColor=#6c8ebf;" parent="1" vertex="1">
          <mxGeometry x="2666" y="452" width="502" height="39" as="geometry" />
        </mxCell>
        <mxCell id="G1yCCOK3VerNwuk-R6xp-132" value="HitPoint" style="rounded=1;whiteSpace=wrap;html=1;align=center;" parent="1" vertex="1">
          <mxGeometry x="2667" y="529" width="145" height="39" as="geometry" />
        </mxCell>
        <mxCell id="G1yCCOK3VerNwuk-R6xp-133" value="CommitAbility" style="rounded=1;whiteSpace=wrap;html=1;align=center;" parent="1" vertex="1">
          <mxGeometry x="2833" y="530" width="92" height="39" as="geometry" />
        </mxCell>
        <mxCell id="G1yCCOK3VerNwuk-R6xp-134" value="HitPoint" style="rounded=1;whiteSpace=wrap;html=1;align=center;" parent="1" vertex="1">
          <mxGeometry x="2998" y="531" width="141" height="39" as="geometry" />
        </mxCell>
        <mxCell id="G1yCCOK3VerNwuk-R6xp-135" style="rounded=0;orthogonalLoop=1;jettySize=auto;html=1;entryX=0.5;entryY=0;entryDx=0;entryDy=0;dashed=1;dashPattern=8 8;" parent="1" source="G1yCCOK3VerNwuk-R6xp-136" target="G1yCCOK3VerNwuk-R6xp-140" edge="1">
          <mxGeometry relative="1" as="geometry" />
        </mxCell>
        <mxCell id="G1yCCOK3VerNwuk-R6xp-136" value="选敌" style="rounded=1;whiteSpace=wrap;html=1;align=center;" parent="1" vertex="1">
          <mxGeometry x="2671" y="569" width="70" height="39" as="geometry" />
        </mxCell>
        <mxCell id="G1yCCOK3VerNwuk-R6xp-137" value="打击效果" style="rounded=1;whiteSpace=wrap;html=1;align=center;" parent="1" vertex="1">
          <mxGeometry x="2742" y="569" width="70" height="39" as="geometry" />
        </mxCell>
        <mxCell id="G1yCCOK3VerNwuk-R6xp-138" value="选敌" style="rounded=1;whiteSpace=wrap;html=1;align=center;" parent="1" vertex="1">
          <mxGeometry x="2996" y="570" width="70" height="39" as="geometry" />
        </mxCell>
        <mxCell id="G1yCCOK3VerNwuk-R6xp-139" value="打击效果" style="rounded=1;whiteSpace=wrap;html=1;align=center;" parent="1" vertex="1">
          <mxGeometry x="3067" y="570" width="70" height="39" as="geometry" />
        </mxCell>
        <mxCell id="G1yCCOK3VerNwuk-R6xp-140" value="&lt;br&gt;&lt;table style=&quot;border-collapse:collapse;width:186.03pt;&quot; height=&quot;126&quot; width=&quot;248&quot; cellspacing=&quot;0&quot; cellpadding=&quot;0&quot; border=&quot;0&quot;&gt; &lt;colgroup&gt;&lt;col style=&quot;width:54.00pt;&quot; width=&quot;72&quot;&gt;&lt;/colgroup&gt; &lt;colgroup&gt;&lt;col style=&quot;width:132.00pt;&quot; width=&quot;176&quot;&gt;&lt;/colgroup&gt; &lt;tbody&gt;&lt;tr style=&quot;height:13.50pt;&quot; height=&quot;18&quot;&gt;  &lt;td style=&quot;height:13.50pt;width:54.00pt;&quot; align=&quot;right&quot; width=&quot;72&quot; height=&quot;18&quot;&gt;1&lt;/td&gt;  &lt;td style=&quot;width:132.00pt;&quot; width=&quot;176&quot;&gt;圆形&lt;/td&gt; &lt;/tr&gt; &lt;tr style=&quot;height:13.50pt;&quot; height=&quot;18&quot;&gt;  &lt;td style=&quot;height:13.50pt;&quot; align=&quot;right&quot; height=&quot;18&quot;&gt;2&lt;/td&gt;  &lt;td&gt;从我到目标矩形&lt;/td&gt; &lt;/tr&gt; &lt;tr style=&quot;height:13.50pt;&quot; height=&quot;18&quot;&gt;  &lt;td style=&quot;height:13.50pt;&quot; align=&quot;right&quot; height=&quot;18&quot;&gt;3&lt;/td&gt;  &lt;td&gt;从我到目标扇形&lt;/td&gt; &lt;/tr&gt; &lt;tr style=&quot;height:13.50pt;&quot; height=&quot;18&quot;&gt;  &lt;td style=&quot;height:13.50pt;&quot; align=&quot;right&quot; height=&quot;18&quot;&gt;4&lt;/td&gt;  &lt;td&gt;选我&lt;/td&gt; &lt;/tr&gt; &lt;tr style=&quot;height:13.50pt;&quot; height=&quot;18&quot;&gt;  &lt;td style=&quot;height:13.50pt;&quot; align=&quot;right&quot; height=&quot;18&quot;&gt;5&lt;/td&gt;  &lt;td&gt;选我的主人&lt;/td&gt; &lt;/tr&gt; &lt;tr style=&quot;height:13.50pt;&quot; height=&quot;18&quot;&gt;  &lt;td style=&quot;height:13.50pt;&quot; align=&quot;right&quot; height=&quot;18&quot;&gt;6&lt;/td&gt;  &lt;td&gt;选我的召唤物&lt;/td&gt; &lt;/tr&gt; &lt;tr style=&quot;height:13.50pt;&quot; height=&quot;18&quot;&gt;  &lt;td style=&quot;height:13.50pt;&quot; align=&quot;right&quot; height=&quot;18&quot;&gt;7&lt;/td&gt;  &lt;td&gt;选Locktarget的目标&lt;/td&gt; &lt;/tr&gt;&lt;/tbody&gt;&lt;/table&gt;" style="rounded=1;whiteSpace=wrap;html=1;fillColor=#e1d5e7;strokeColor=#9673a6;" parent="1" vertex="1">
          <mxGeometry x="2680" y="695" width="190" height="160" as="geometry" />
        </mxCell>
        <mxCell id="G1yCCOK3VerNwuk-R6xp-141" value="&lt;br&gt;&lt;table style=&quot;border-collapse:collapse;width:108.03pt;&quot; height=&quot;108&quot; width=&quot;144&quot; cellspacing=&quot;0&quot; cellpadding=&quot;0&quot; border=&quot;0&quot;&gt; &lt;colgroup&gt;&lt;col span=&quot;2&quot; style=&quot;width:54.00pt;&quot; width=&quot;72&quot;&gt;&lt;/colgroup&gt; &lt;tbody&gt;&lt;tr style=&quot;height:13.50pt;&quot; height=&quot;18&quot;&gt;  &lt;td style=&quot;height:13.50pt;width:54.00pt;&quot; width=&quot;72&quot; height=&quot;18&quot;&gt;1&lt;/td&gt;  &lt;td style=&quot;width:54.00pt;&quot; width=&quot;72&quot;&gt;伤害&lt;/td&gt; &lt;/tr&gt; &lt;tr style=&quot;height:13.50pt;&quot; height=&quot;18&quot;&gt;  &lt;td style=&quot;height:13.50pt;&quot; height=&quot;18&quot;&gt;2&lt;/td&gt;  &lt;td&gt;buff&lt;/td&gt; &lt;/tr&gt; &lt;tr style=&quot;height:13.50pt;&quot; height=&quot;18&quot;&gt;  &lt;td style=&quot;height:13.50pt;&quot; height=&quot;18&quot;&gt;3&lt;/td&gt;  &lt;td&gt;子弹&lt;/td&gt; &lt;/tr&gt; &lt;tr style=&quot;height:13.50pt;&quot; height=&quot;18&quot;&gt;  &lt;td style=&quot;height:13.50pt;&quot; height=&quot;18&quot;&gt;4&lt;/td&gt;  &lt;td&gt;召唤&lt;/td&gt; &lt;/tr&gt; &lt;tr style=&quot;height:13.50pt;&quot; height=&quot;18&quot;&gt;  &lt;td style=&quot;height:13.50pt;&quot; height=&quot;18&quot;&gt;5&lt;/td&gt;  &lt;td&gt;净化&lt;/td&gt; &lt;/tr&gt; &lt;tr style=&quot;height:13.50pt;&quot; height=&quot;18&quot;&gt;  &lt;td style=&quot;height:13.50pt;&quot; height=&quot;18&quot;&gt;6&lt;/td&gt;  &lt;td&gt;step&lt;/td&gt; &lt;/tr&gt;&lt;/tbody&gt;&lt;/table&gt;" style="rounded=1;whiteSpace=wrap;html=1;align=center;fillColor=#d5e8d4;strokeColor=#82b366;" parent="1" vertex="1">
          <mxGeometry x="2915" y="694" width="170" height="160" as="geometry" />
        </mxCell>
        <mxCell id="G1yCCOK3VerNwuk-R6xp-142" style="rounded=0;orthogonalLoop=1;jettySize=auto;html=1;dashed=1;dashPattern=8 8;exitX=0.5;exitY=1;exitDx=0;exitDy=0;" parent="1" source="G1yCCOK3VerNwuk-R6xp-138" edge="1">
          <mxGeometry relative="1" as="geometry">
            <mxPoint x="2805" y="627" as="sourcePoint" />
            <mxPoint x="2775" y="690" as="targetPoint" />
          </mxGeometry>
        </mxCell>
        <mxCell id="G1yCCOK3VerNwuk-R6xp-143" style="rounded=0;orthogonalLoop=1;jettySize=auto;html=1;dashed=1;dashPattern=8 8;exitX=0.5;exitY=1;exitDx=0;exitDy=0;entryX=0.5;entryY=0;entryDx=0;entryDy=0;" parent="1" source="G1yCCOK3VerNwuk-R6xp-137" target="G1yCCOK3VerNwuk-R6xp-141" edge="1">
          <mxGeometry relative="1" as="geometry">
            <mxPoint x="3041" y="619" as="sourcePoint" />
            <mxPoint x="2785" y="700" as="targetPoint" />
          </mxGeometry>
        </mxCell>
        <mxCell id="G1yCCOK3VerNwuk-R6xp-144" style="rounded=0;orthogonalLoop=1;jettySize=auto;html=1;dashed=1;dashPattern=8 8;exitX=0.5;exitY=1;exitDx=0;exitDy=0;entryX=0.5;entryY=0;entryDx=0;entryDy=0;" parent="1" source="G1yCCOK3VerNwuk-R6xp-139" target="G1yCCOK3VerNwuk-R6xp-141" edge="1">
          <mxGeometry relative="1" as="geometry">
            <mxPoint x="2791" y="618" as="sourcePoint" />
            <mxPoint x="3010" y="704" as="targetPoint" />
          </mxGeometry>
        </mxCell>
        <mxCell id="G1yCCOK3VerNwuk-R6xp-145" value="EndAbility" style="rounded=1;whiteSpace=wrap;html=1;align=center;fillColor=#f8cecc;strokeColor=#b85450;" parent="1" vertex="1">
          <mxGeometry x="3280" y="281" width="76" height="41" as="geometry" />
        </mxCell>
        <mxCell id="G1yCCOK3VerNwuk-R6xp-146" value="ActivateAbility" style="rounded=1;whiteSpace=wrap;html=1;align=center;fillColor=#d5e8d4;strokeColor=#82b366;" parent="1" vertex="1">
          <mxGeometry x="2334" y="281" width="74" height="41" as="geometry" />
        </mxCell>
        <mxCell id="G1yCCOK3VerNwuk-R6xp-147" value="AN" style="rounded=1;whiteSpace=wrap;html=1;align=center;" parent="1" vertex="1">
          <mxGeometry x="2666" y="490" width="144" height="39" as="geometry" />
        </mxCell>
        <mxCell id="G1yCCOK3VerNwuk-R6xp-148" value="AN" style="rounded=1;whiteSpace=wrap;html=1;align=center;" parent="1" vertex="1">
          <mxGeometry x="2833" y="492" width="92" height="39" as="geometry" />
        </mxCell>
        <mxCell id="G1yCCOK3VerNwuk-R6xp-149" value="AN" style="rounded=1;whiteSpace=wrap;html=1;align=center;" parent="1" vertex="1">
          <mxGeometry x="2997" y="492" width="141" height="39" as="geometry" />
        </mxCell>
        <mxCell id="G1yCCOK3VerNwuk-R6xp-150" style="edgeStyle=orthogonalEdgeStyle;rounded=0;orthogonalLoop=1;jettySize=auto;html=1;entryX=0;entryY=0.5;entryDx=0;entryDy=0;" parent="1" source="G1yCCOK3VerNwuk-R6xp-151" target="G1yCCOK3VerNwuk-R6xp-145" edge="1">
          <mxGeometry relative="1" as="geometry" />
        </mxCell>
        <mxCell id="G1yCCOK3VerNwuk-R6xp-151" value="播放montage A" style="rounded=1;whiteSpace=wrap;html=1;align=center;fillColor=#dae8fc;strokeColor=#6c8ebf;" parent="1" vertex="1">
          <mxGeometry x="2663" y="304" width="502" height="39" as="geometry" />
        </mxCell>
        <mxCell id="G1yCCOK3VerNwuk-R6xp-152" style="edgeStyle=orthogonalEdgeStyle;rounded=0;orthogonalLoop=1;jettySize=auto;html=1;entryX=0;entryY=0.5;entryDx=0;entryDy=0;" parent="1" source="G1yCCOK3VerNwuk-R6xp-153" target="G1yCCOK3VerNwuk-R6xp-145" edge="1">
          <mxGeometry relative="1" as="geometry" />
        </mxCell>
        <mxCell id="G1yCCOK3VerNwuk-R6xp-153" value="播放montage B" style="rounded=1;whiteSpace=wrap;html=1;align=center;fillColor=#dae8fc;strokeColor=#6c8ebf;" parent="1" vertex="1">
          <mxGeometry x="2664" y="373" width="502" height="39" as="geometry" />
        </mxCell>
        <mxCell id="G1yCCOK3VerNwuk-R6xp-154" value="蓝量" style="rounded=1;whiteSpace=wrap;html=1;" parent="1" vertex="1">
          <mxGeometry x="1936" y="283" width="68" height="37" as="geometry" />
        </mxCell>
        <mxCell id="G1yCCOK3VerNwuk-R6xp-156" value="HitPoint" style="rounded=1;whiteSpace=wrap;html=1;align=center;" parent="1" vertex="1">
          <mxGeometry x="2760" y="-394" width="145" height="39" as="geometry" />
        </mxCell>
        <mxCell id="G1yCCOK3VerNwuk-R6xp-157" value="选敌" style="rounded=1;whiteSpace=wrap;html=1;align=center;" parent="1" vertex="1">
          <mxGeometry x="2759" y="-354" width="75" height="39" as="geometry" />
        </mxCell>
        <mxCell id="G1yCCOK3VerNwuk-R6xp-158" value="打击效果" style="rounded=1;whiteSpace=wrap;html=1;align=center;" parent="1" vertex="1">
          <mxGeometry x="2835" y="-354" width="70" height="39" as="geometry" />
        </mxCell>
        <mxCell id="G1yCCOK3VerNwuk-R6xp-159" value="HitPoint" style="rounded=1;whiteSpace=wrap;html=1;align=center;" parent="1" vertex="1">
          <mxGeometry x="2510" y="-394" width="145" height="39" as="geometry" />
        </mxCell>
        <mxCell id="G1yCCOK3VerNwuk-R6xp-160" value="选敌" style="rounded=1;whiteSpace=wrap;html=1;align=center;" parent="1" vertex="1">
          <mxGeometry x="2510" y="-354" width="74" height="39" as="geometry" />
        </mxCell>
        <mxCell id="G1yCCOK3VerNwuk-R6xp-161" value="打击效果" style="rounded=1;whiteSpace=wrap;html=1;align=center;" parent="1" vertex="1">
          <mxGeometry x="2585" y="-354" width="70" height="39" as="geometry" />
        </mxCell>
        <mxCell id="G1yCCOK3VerNwuk-R6xp-163" value="" style="endArrow=classic;html=1;rounded=0;" parent="1" edge="1">
          <mxGeometry width="50" height="50" relative="1" as="geometry">
            <mxPoint x="2438" y="-309" as="sourcePoint" />
            <mxPoint x="2508" y="-394" as="targetPoint" />
          </mxGeometry>
        </mxCell>
        <mxCell id="G1yCCOK3VerNwuk-R6xp-165" value="时间点" style="text;html=1;strokeColor=none;fillColor=none;align=center;verticalAlign=middle;whiteSpace=wrap;rounded=0;" parent="1" vertex="1">
          <mxGeometry x="2390" y="-311" width="74" height="37" as="geometry" />
        </mxCell>
        <mxCell id="G1yCCOK3VerNwuk-R6xp-166" value="" style="endArrow=classic;html=1;rounded=0;" parent="1" edge="1">
          <mxGeometry width="50" height="50" relative="1" as="geometry">
            <mxPoint x="2692" y="-307" as="sourcePoint" />
            <mxPoint x="2762" y="-392" as="targetPoint" />
          </mxGeometry>
        </mxCell>
        <mxCell id="G1yCCOK3VerNwuk-R6xp-167" value="时间点" style="text;html=1;strokeColor=none;fillColor=none;align=center;verticalAlign=middle;whiteSpace=wrap;rounded=0;" parent="1" vertex="1">
          <mxGeometry x="2652" y="-306" width="74" height="37" as="geometry" />
        </mxCell>
        <mxCell id="G1yCCOK3VerNwuk-R6xp-168" value="时间点" style="text;html=1;strokeColor=none;fillColor=none;align=center;verticalAlign=middle;whiteSpace=wrap;rounded=0;" parent="1" vertex="1">
          <mxGeometry x="2902" y="-308" width="74" height="37" as="geometry" />
        </mxCell>
        <mxCell id="G1yCCOK3VerNwuk-R6xp-169" value="" style="endArrow=classic;html=1;rounded=0;" parent="1" edge="1">
          <mxGeometry width="50" height="50" relative="1" as="geometry">
            <mxPoint x="2936" y="-309" as="sourcePoint" />
            <mxPoint x="3006" y="-394" as="targetPoint" />
          </mxGeometry>
        </mxCell>
        <mxCell id="UlnXxGRV-r5DWmq6DCOY-1" style="edgeStyle=orthogonalEdgeStyle;rounded=0;orthogonalLoop=1;jettySize=auto;html=1;entryX=0;entryY=0.5;entryDx=0;entryDy=0;" edge="1" parent="1" source="UlnXxGRV-r5DWmq6DCOY-2" target="UlnXxGRV-r5DWmq6DCOY-5">
          <mxGeometry relative="1" as="geometry" />
        </mxCell>
        <mxCell id="UlnXxGRV-r5DWmq6DCOY-2" value="CanActivate" style="rounded=1;whiteSpace=wrap;html=1;" vertex="1" parent="1">
          <mxGeometry x="3516" y="907" width="141" height="60" as="geometry" />
        </mxCell>
        <mxCell id="UlnXxGRV-r5DWmq6DCOY-3" value="冷却等条件" style="rounded=1;whiteSpace=wrap;html=1;" vertex="1" parent="1">
          <mxGeometry x="3518" y="968" width="68" height="37" as="geometry" />
        </mxCell>
        <mxCell id="UlnXxGRV-r5DWmq6DCOY-4" style="edgeStyle=orthogonalEdgeStyle;rounded=0;orthogonalLoop=1;jettySize=auto;html=1;entryX=0;entryY=0.5;entryDx=0;entryDy=0;" edge="1" parent="1" source="UlnXxGRV-r5DWmq6DCOY-5" target="UlnXxGRV-r5DWmq6DCOY-8">
          <mxGeometry relative="1" as="geometry" />
        </mxCell>
        <mxCell id="UlnXxGRV-r5DWmq6DCOY-5" value="&amp;nbsp;选参考点" style="rounded=1;whiteSpace=wrap;html=1;" vertex="1" parent="1">
          <mxGeometry x="3707" y="907" width="201" height="60" as="geometry" />
        </mxCell>
        <mxCell id="UlnXxGRV-r5DWmq6DCOY-6" value="1. 选当前锁敌&lt;br&gt;&lt;div style=&quot;&quot;&gt;&lt;span style=&quot;background-color: initial;&quot;&gt;2. 选面朝方向扇形范围内最近敌人&lt;/span&gt;&lt;/div&gt;&lt;div style=&quot;&quot;&gt;&lt;span style=&quot;background-color: initial;&quot;&gt;3. 选最近队友&lt;/span&gt;&lt;/div&gt;&lt;div style=&quot;&quot;&gt;4. 选自己&lt;/div&gt;&lt;div style=&quot;&quot;&gt;&lt;span style=&quot;background-color: initial;&quot;&gt;5.。。。&lt;/span&gt;&lt;/div&gt;" style="rounded=1;whiteSpace=wrap;html=1;align=left;" vertex="1" parent="1">
          <mxGeometry x="3788" y="969" width="120" height="109" as="geometry" />
        </mxCell>
        <mxCell id="UlnXxGRV-r5DWmq6DCOY-7" value="1. 选人" style="rounded=1;whiteSpace=wrap;html=1;align=left;" vertex="1" parent="1">
          <mxGeometry x="3698" y="997" width="90" height="43" as="geometry" />
        </mxCell>
        <mxCell id="UlnXxGRV-r5DWmq6DCOY-8" value="释放技能" style="rounded=1;whiteSpace=wrap;html=1;" vertex="1" parent="1">
          <mxGeometry x="3985" y="906" width="1024" height="60" as="geometry" />
        </mxCell>
        <mxCell id="UlnXxGRV-r5DWmq6DCOY-9" style="edgeStyle=orthogonalEdgeStyle;rounded=0;orthogonalLoop=1;jettySize=auto;html=1;entryX=0;entryY=0.5;entryDx=0;entryDy=0;" edge="1" parent="1" source="UlnXxGRV-r5DWmq6DCOY-12" target="UlnXxGRV-r5DWmq6DCOY-14">
          <mxGeometry relative="1" as="geometry" />
        </mxCell>
        <mxCell id="UlnXxGRV-r5DWmq6DCOY-10" style="edgeStyle=orthogonalEdgeStyle;rounded=0;orthogonalLoop=1;jettySize=auto;html=1;" edge="1" parent="1" source="UlnXxGRV-r5DWmq6DCOY-12" target="UlnXxGRV-r5DWmq6DCOY-36">
          <mxGeometry relative="1" as="geometry" />
        </mxCell>
        <mxCell id="UlnXxGRV-r5DWmq6DCOY-11" style="edgeStyle=orthogonalEdgeStyle;rounded=0;orthogonalLoop=1;jettySize=auto;html=1;entryX=0;entryY=0.5;entryDx=0;entryDy=0;" edge="1" parent="1" source="UlnXxGRV-r5DWmq6DCOY-12" target="UlnXxGRV-r5DWmq6DCOY-34">
          <mxGeometry relative="1" as="geometry" />
        </mxCell>
        <mxCell id="UlnXxGRV-r5DWmq6DCOY-12" value="根据条件选择Montage&lt;br&gt;1. 在空中&lt;br&gt;2. 在硬直中&lt;br&gt;3. 蓄力N阶段&lt;br&gt;4. 。。。" style="rounded=1;whiteSpace=wrap;html=1;align=left;" vertex="1" parent="1">
          <mxGeometry x="4062" y="967" width="155" height="109" as="geometry" />
        </mxCell>
        <mxCell id="UlnXxGRV-r5DWmq6DCOY-13" style="edgeStyle=orthogonalEdgeStyle;rounded=0;orthogonalLoop=1;jettySize=auto;html=1;entryX=0;entryY=0.5;entryDx=0;entryDy=0;" edge="1" parent="1" source="UlnXxGRV-r5DWmq6DCOY-14" target="UlnXxGRV-r5DWmq6DCOY-28">
          <mxGeometry relative="1" as="geometry" />
        </mxCell>
        <mxCell id="UlnXxGRV-r5DWmq6DCOY-14" value="播放StoryLine" style="rounded=1;whiteSpace=wrap;html=1;align=center;fillColor=#dae8fc;strokeColor=#6c8ebf;" vertex="1" parent="1">
          <mxGeometry x="4319" y="1138" width="502" height="39" as="geometry" />
        </mxCell>
        <mxCell id="UlnXxGRV-r5DWmq6DCOY-28" value="结束技能" style="rounded=1;whiteSpace=wrap;html=1;align=center;fillColor=#f8cecc;strokeColor=#b85450;" vertex="1" parent="1">
          <mxGeometry x="4933" y="967" width="76" height="41" as="geometry" />
        </mxCell>
        <mxCell id="UlnXxGRV-r5DWmq6DCOY-29" value="开始释放" style="rounded=1;whiteSpace=wrap;html=1;align=center;fillColor=#d5e8d4;strokeColor=#82b366;" vertex="1" parent="1">
          <mxGeometry x="3987" y="967" width="74" height="41" as="geometry" />
        </mxCell>
        <mxCell id="UlnXxGRV-r5DWmq6DCOY-33" style="edgeStyle=orthogonalEdgeStyle;rounded=0;orthogonalLoop=1;jettySize=auto;html=1;entryX=0;entryY=0.5;entryDx=0;entryDy=0;" edge="1" parent="1" source="UlnXxGRV-r5DWmq6DCOY-34" target="UlnXxGRV-r5DWmq6DCOY-28">
          <mxGeometry relative="1" as="geometry" />
        </mxCell>
        <mxCell id="UlnXxGRV-r5DWmq6DCOY-34" value="播放StoryLine" style="rounded=1;whiteSpace=wrap;html=1;align=center;fillColor=#dae8fc;strokeColor=#6c8ebf;" vertex="1" parent="1">
          <mxGeometry x="4316" y="990" width="502" height="39" as="geometry" />
        </mxCell>
        <mxCell id="UlnXxGRV-r5DWmq6DCOY-35" style="edgeStyle=orthogonalEdgeStyle;rounded=0;orthogonalLoop=1;jettySize=auto;html=1;entryX=0;entryY=0.5;entryDx=0;entryDy=0;" edge="1" parent="1" source="UlnXxGRV-r5DWmq6DCOY-36" target="UlnXxGRV-r5DWmq6DCOY-28">
          <mxGeometry relative="1" as="geometry" />
        </mxCell>
        <mxCell id="UlnXxGRV-r5DWmq6DCOY-36" value="播放StoryLine" style="rounded=1;whiteSpace=wrap;html=1;align=center;fillColor=#dae8fc;strokeColor=#6c8ebf;" vertex="1" parent="1">
          <mxGeometry x="4317" y="1059" width="502" height="39" as="geometry" />
        </mxCell>
        <mxCell id="UlnXxGRV-r5DWmq6DCOY-37" value="蓝量" style="rounded=1;whiteSpace=wrap;html=1;" vertex="1" parent="1">
          <mxGeometry x="3589" y="969" width="68" height="37" as="geometry" />
        </mxCell>
        <mxCell id="UlnXxGRV-r5DWmq6DCOY-38" value="&lt;br&gt;&lt;div style=&quot;&quot;&gt;&lt;span style=&quot;background-color: initial;&quot;&gt;1. 面朝方向前方N米&lt;/span&gt;&lt;/div&gt;&lt;div style=&quot;&quot;&gt;&lt;br&gt;&lt;/div&gt;" style="rounded=1;whiteSpace=wrap;html=1;align=left;" vertex="1" parent="1">
          <mxGeometry x="3790" y="1078" width="120" height="109" as="geometry" />
        </mxCell>
        <mxCell id="UlnXxGRV-r5DWmq6DCOY-39" value="2. 选点" style="rounded=1;whiteSpace=wrap;html=1;align=left;" vertex="1" parent="1">
          <mxGeometry x="3699" y="1114" width="90" height="42" as="geometry" />
        </mxCell>
        <mxCell id="UlnXxGRV-r5DWmq6DCOY-41" value="打击点" style="rounded=1;whiteSpace=wrap;html=1;align=center;fillColor=#fad7ac;strokeColor=#b46504;" vertex="1" parent="1">
          <mxGeometry x="4406" y="1392" width="56" height="49" as="geometry" />
        </mxCell>
        <mxCell id="UlnXxGRV-r5DWmq6DCOY-42" value="打击点" style="rounded=1;whiteSpace=wrap;html=1;align=center;fillColor=#fad7ac;strokeColor=#b46504;" vertex="1" parent="1">
          <mxGeometry x="4515" y="1332" width="56" height="49" as="geometry" />
        </mxCell>
        <mxCell id="UlnXxGRV-r5DWmq6DCOY-43" value="打击点" style="rounded=1;whiteSpace=wrap;html=1;align=center;fillColor=#fad7ac;strokeColor=#b46504;" vertex="1" parent="1">
          <mxGeometry x="4624" y="1271" width="1822" height="49" as="geometry" />
        </mxCell>
        <mxCell id="UlnXxGRV-r5DWmq6DCOY-44" value="" style="endArrow=classic;html=1;rounded=0;" edge="1" parent="1">
          <mxGeometry width="50" height="50" relative="1" as="geometry">
            <mxPoint x="4430" y="1178" as="sourcePoint" />
            <mxPoint x="4430" y="1390" as="targetPoint" />
          </mxGeometry>
        </mxCell>
        <mxCell id="UlnXxGRV-r5DWmq6DCOY-45" value="" style="endArrow=classic;html=1;rounded=0;" edge="1" parent="1">
          <mxGeometry width="50" height="50" relative="1" as="geometry">
            <mxPoint x="4542" y="1177" as="sourcePoint" />
            <mxPoint x="4542" y="1324" as="targetPoint" />
          </mxGeometry>
        </mxCell>
        <mxCell id="UlnXxGRV-r5DWmq6DCOY-46" value="" style="endArrow=classic;html=1;rounded=0;" edge="1" parent="1">
          <mxGeometry width="50" height="50" relative="1" as="geometry">
            <mxPoint x="4652" y="1179" as="sourcePoint" />
            <mxPoint x="4652" y="1264" as="targetPoint" />
          </mxGeometry>
        </mxCell>
        <mxCell id="UlnXxGRV-r5DWmq6DCOY-47" value="脱手" style="rounded=1;whiteSpace=wrap;html=1;align=center;fillColor=#b1ddf0;strokeColor=#10739e;" vertex="1" parent="1">
          <mxGeometry x="4632" y="1391" width="56" height="49" as="geometry" />
        </mxCell>
        <mxCell id="UlnXxGRV-r5DWmq6DCOY-55" style="edgeStyle=orthogonalEdgeStyle;rounded=0;orthogonalLoop=1;jettySize=auto;html=1;curved=1;entryX=0;entryY=0.5;entryDx=0;entryDy=0;" edge="1" parent="1" source="UlnXxGRV-r5DWmq6DCOY-48" target="UlnXxGRV-r5DWmq6DCOY-51">
          <mxGeometry relative="1" as="geometry">
            <mxPoint x="4983" y="1488" as="targetPoint" />
          </mxGeometry>
        </mxCell>
        <mxCell id="UlnXxGRV-r5DWmq6DCOY-86" style="edgeStyle=orthogonalEdgeStyle;rounded=0;orthogonalLoop=1;jettySize=auto;html=1;entryX=0;entryY=0.5;entryDx=0;entryDy=0;curved=1;" edge="1" parent="1" source="UlnXxGRV-r5DWmq6DCOY-48" target="UlnXxGRV-r5DWmq6DCOY-65">
          <mxGeometry relative="1" as="geometry" />
        </mxCell>
        <mxCell id="UlnXxGRV-r5DWmq6DCOY-48" value="非脱手" style="rounded=1;whiteSpace=wrap;html=1;align=center;fillColor=#b1ddf0;strokeColor=#10739e;" vertex="1" parent="1">
          <mxGeometry x="4630" y="1556" width="56" height="49" as="geometry" />
        </mxCell>
        <mxCell id="UlnXxGRV-r5DWmq6DCOY-53" style="edgeStyle=orthogonalEdgeStyle;rounded=0;orthogonalLoop=1;jettySize=auto;html=1;" edge="1" parent="1" source="UlnXxGRV-r5DWmq6DCOY-49" target="UlnXxGRV-r5DWmq6DCOY-50">
          <mxGeometry relative="1" as="geometry" />
        </mxCell>
        <mxCell id="UlnXxGRV-r5DWmq6DCOY-49" value="1.法术场&lt;div&gt;2.子弹&lt;/div&gt;" style="rounded=1;whiteSpace=wrap;html=1;align=left;fillColor=#b1ddf0;strokeColor=#10739e;" vertex="1" parent="1">
          <mxGeometry x="4688" y="1391" width="91" height="58" as="geometry" />
        </mxCell>
        <mxCell id="UlnXxGRV-r5DWmq6DCOY-56" style="edgeStyle=orthogonalEdgeStyle;rounded=0;orthogonalLoop=1;jettySize=auto;html=1;entryX=0;entryY=0.5;entryDx=0;entryDy=0;curved=1;" edge="1" parent="1" source="UlnXxGRV-r5DWmq6DCOY-50" target="UlnXxGRV-r5DWmq6DCOY-51">
          <mxGeometry relative="1" as="geometry" />
        </mxCell>
        <mxCell id="UlnXxGRV-r5DWmq6DCOY-50" value="碰撞" style="rounded=1;whiteSpace=wrap;html=1;align=center;" vertex="1" parent="1">
          <mxGeometry x="4823" y="1394" width="56" height="54" as="geometry" />
        </mxCell>
        <mxCell id="UlnXxGRV-r5DWmq6DCOY-59" style="edgeStyle=orthogonalEdgeStyle;rounded=0;orthogonalLoop=1;jettySize=auto;html=1;entryX=0;entryY=0.5;entryDx=0;entryDy=0;" edge="1" parent="1" source="UlnXxGRV-r5DWmq6DCOY-51" target="UlnXxGRV-r5DWmq6DCOY-57">
          <mxGeometry relative="1" as="geometry" />
        </mxCell>
        <mxCell id="UlnXxGRV-r5DWmq6DCOY-51" value="选敌" style="rounded=1;whiteSpace=wrap;html=1;align=center;fillColor=#e1d5e7;strokeColor=#9673a6;" vertex="1" parent="1">
          <mxGeometry x="4985" y="1413" width="153" height="54" as="geometry" />
        </mxCell>
        <mxCell id="UlnXxGRV-r5DWmq6DCOY-54" style="edgeStyle=entityRelationEdgeStyle;rounded=0;orthogonalLoop=1;jettySize=auto;html=1;" edge="1" parent="1" source="UlnXxGRV-r5DWmq6DCOY-52" target="UlnXxGRV-r5DWmq6DCOY-51">
          <mxGeometry relative="1" as="geometry" />
        </mxCell>
        <mxCell id="UlnXxGRV-r5DWmq6DCOY-52" value="冲锋" style="rounded=1;whiteSpace=wrap;html=1;align=left;fillColor=#b1ddf0;strokeColor=#10739e;" vertex="1" parent="1">
          <mxGeometry x="4687" y="1470" width="91" height="58" as="geometry" />
        </mxCell>
        <mxCell id="UlnXxGRV-r5DWmq6DCOY-63" style="edgeStyle=orthogonalEdgeStyle;rounded=0;orthogonalLoop=1;jettySize=auto;html=1;entryX=0;entryY=0.5;entryDx=0;entryDy=0;" edge="1" parent="1" source="UlnXxGRV-r5DWmq6DCOY-57" target="UlnXxGRV-r5DWmq6DCOY-61">
          <mxGeometry relative="1" as="geometry" />
        </mxCell>
        <mxCell id="UlnXxGRV-r5DWmq6DCOY-57" value="过滤敌人" style="rounded=1;whiteSpace=wrap;html=1;align=left;fillColor=#fad7ac;strokeColor=#b46504;" vertex="1" parent="1">
          <mxGeometry x="5239" y="1412" width="56" height="54" as="geometry" />
        </mxCell>
        <mxCell id="UlnXxGRV-r5DWmq6DCOY-58" value="1. 选我&lt;div&gt;2. 选目标&lt;/div&gt;&lt;div&gt;3. 选以我为中心的圆&lt;/div&gt;&lt;div&gt;4. 选以目标为中心的原&lt;/div&gt;&lt;div&gt;5. 选我到目标的矩形范围&lt;/div&gt;&lt;div&gt;6. 选目标位置为中心的圆&lt;/div&gt;&lt;div&gt;7. 选我面朝前方扇形范围&lt;/div&gt;&lt;div&gt;8. 选我面朝方向矩形范围&lt;/div&gt;&lt;div&gt;9. 选我到目标扇形范围&lt;/div&gt;&lt;div&gt;10……&lt;/div&gt;" style="rounded=1;whiteSpace=wrap;html=1;align=left;fillColor=none;" vertex="1" parent="1">
          <mxGeometry x="4983" y="1468" width="153" height="176" as="geometry" />
        </mxCell>
        <mxCell id="UlnXxGRV-r5DWmq6DCOY-60" value="1. 阵营&lt;div&gt;2. 仇恨&lt;/div&gt;&lt;div&gt;3. 和平、杀戮等模式&lt;/div&gt;&lt;div&gt;4. 是否红名&lt;/div&gt;&lt;div&gt;5. 场景玩法&lt;/div&gt;&lt;div&gt;6. 队伍&lt;/div&gt;&lt;div&gt;7. 帮派&lt;/div&gt;&lt;div&gt;8. ……&lt;/div&gt;" style="rounded=1;whiteSpace=wrap;html=1;align=left;" vertex="1" parent="1">
          <mxGeometry x="5233" y="1466" width="122" height="142" as="geometry" />
        </mxCell>
        <mxCell id="UlnXxGRV-r5DWmq6DCOY-70" style="edgeStyle=orthogonalEdgeStyle;rounded=0;orthogonalLoop=1;jettySize=auto;html=1;curved=1;entryX=0;entryY=0.5;entryDx=0;entryDy=0;" edge="1" parent="1" source="UlnXxGRV-r5DWmq6DCOY-61" target="UlnXxGRV-r5DWmq6DCOY-64">
          <mxGeometry relative="1" as="geometry" />
        </mxCell>
        <mxCell id="UlnXxGRV-r5DWmq6DCOY-73" style="edgeStyle=orthogonalEdgeStyle;rounded=0;orthogonalLoop=1;jettySize=auto;html=1;curved=1;entryX=0;entryY=0.5;entryDx=0;entryDy=0;" edge="1" parent="1" source="UlnXxGRV-r5DWmq6DCOY-61" target="UlnXxGRV-r5DWmq6DCOY-71">
          <mxGeometry relative="1" as="geometry" />
        </mxCell>
        <mxCell id="UlnXxGRV-r5DWmq6DCOY-74" style="edgeStyle=orthogonalEdgeStyle;rounded=0;orthogonalLoop=1;jettySize=auto;html=1;entryX=0;entryY=0.5;entryDx=0;entryDy=0;curved=1;" edge="1" parent="1" source="UlnXxGRV-r5DWmq6DCOY-61" target="UlnXxGRV-r5DWmq6DCOY-72">
          <mxGeometry relative="1" as="geometry" />
        </mxCell>
        <mxCell id="UlnXxGRV-r5DWmq6DCOY-61" value="敌人类型的不同释放不同技能效果" style="rounded=1;whiteSpace=wrap;html=1;align=left;" vertex="1" parent="1">
          <mxGeometry x="5394" y="1405" width="84" height="67" as="geometry" />
        </mxCell>
        <mxCell id="UlnXxGRV-r5DWmq6DCOY-62" value="1. 战斗单元&lt;div&gt;2. 树&lt;/div&gt;&lt;div&gt;3. 石头&lt;/div&gt;&lt;div&gt;4. 破坏物体&lt;/div&gt;" style="rounded=1;whiteSpace=wrap;html=1;align=left;" vertex="1" parent="1">
          <mxGeometry x="5391" y="1472" width="115" height="102" as="geometry" />
        </mxCell>
        <mxCell id="UlnXxGRV-r5DWmq6DCOY-64" value="SkillEffect" style="rounded=1;whiteSpace=wrap;html=1;align=left;fillColor=#b0e3e6;strokeColor=#0e8088;" vertex="1" parent="1">
          <mxGeometry x="5610" y="1369" width="84" height="67" as="geometry" />
        </mxCell>
        <mxCell id="UlnXxGRV-r5DWmq6DCOY-67" style="edgeStyle=orthogonalEdgeStyle;rounded=0;orthogonalLoop=1;jettySize=auto;html=1;" edge="1" parent="1" source="UlnXxGRV-r5DWmq6DCOY-65" target="UlnXxGRV-r5DWmq6DCOY-66">
          <mxGeometry relative="1" as="geometry" />
        </mxCell>
        <mxCell id="UlnXxGRV-r5DWmq6DCOY-65" value="选敌" style="rounded=1;whiteSpace=wrap;html=1;align=center;fillColor=#e1d5e7;strokeColor=#9673a6;" vertex="1" parent="1">
          <mxGeometry x="4987" y="1743" width="153" height="54" as="geometry" />
        </mxCell>
        <mxCell id="UlnXxGRV-r5DWmq6DCOY-68" style="edgeStyle=orthogonalEdgeStyle;rounded=0;orthogonalLoop=1;jettySize=auto;html=1;" edge="1" parent="1" source="UlnXxGRV-r5DWmq6DCOY-66">
          <mxGeometry relative="1" as="geometry">
            <mxPoint x="5371.666666666667" y="1768.999999999999" as="targetPoint" />
          </mxGeometry>
        </mxCell>
        <mxCell id="UlnXxGRV-r5DWmq6DCOY-66" value="过滤敌人" style="rounded=1;whiteSpace=wrap;html=1;align=left;fillColor=#fad7ac;strokeColor=#b46504;" vertex="1" parent="1">
          <mxGeometry x="5235" y="1742" width="56" height="54" as="geometry" />
        </mxCell>
        <mxCell id="UlnXxGRV-r5DWmq6DCOY-69" value="…………" style="rounded=1;whiteSpace=wrap;html=1;align=left;" vertex="1" parent="1">
          <mxGeometry x="5376" y="1735" width="84" height="67" as="geometry" />
        </mxCell>
        <mxCell id="UlnXxGRV-r5DWmq6DCOY-71" value="SkillEffect" style="rounded=1;whiteSpace=wrap;html=1;align=left;fillColor=#b0e3e6;strokeColor=#0e8088;" vertex="1" parent="1">
          <mxGeometry x="5608" y="1444" width="84" height="67" as="geometry" />
        </mxCell>
        <mxCell id="UlnXxGRV-r5DWmq6DCOY-72" value="SkillEffect" style="rounded=1;whiteSpace=wrap;html=1;align=left;fillColor=#b0e3e6;strokeColor=#0e8088;" vertex="1" parent="1">
          <mxGeometry x="5608" y="1525" width="84" height="67" as="geometry" />
        </mxCell>
        <mxCell id="UlnXxGRV-r5DWmq6DCOY-77" style="edgeStyle=orthogonalEdgeStyle;rounded=0;orthogonalLoop=1;jettySize=auto;html=1;entryX=0;entryY=0.5;entryDx=0;entryDy=0;exitX=0.972;exitY=0.343;exitDx=0;exitDy=0;exitPerimeter=0;" edge="1" parent="1" source="UlnXxGRV-r5DWmq6DCOY-75" target="UlnXxGRV-r5DWmq6DCOY-76">
          <mxGeometry relative="1" as="geometry" />
        </mxCell>
        <mxCell id="UlnXxGRV-r5DWmq6DCOY-75" value="1. 伤害&lt;div&gt;2. buff&lt;/div&gt;&lt;div&gt;3. 击退&lt;/div&gt;&lt;div&gt;4. 净化&lt;/div&gt;&lt;div&gt;5. 复活&lt;/div&gt;&lt;div&gt;6. 释放另一个技能&lt;/div&gt;" style="rounded=1;whiteSpace=wrap;html=1;align=left;fillColor=none;" vertex="1" parent="1">
          <mxGeometry x="5610" y="1592" width="103" height="115" as="geometry" />
        </mxCell>
        <mxCell id="UlnXxGRV-r5DWmq6DCOY-80" style="edgeStyle=orthogonalEdgeStyle;rounded=0;orthogonalLoop=1;jettySize=auto;html=1;" edge="1" parent="1" source="UlnXxGRV-r5DWmq6DCOY-76" target="UlnXxGRV-r5DWmq6DCOY-79">
          <mxGeometry relative="1" as="geometry" />
        </mxCell>
        <mxCell id="UlnXxGRV-r5DWmq6DCOY-76" value="buff" style="rounded=1;whiteSpace=wrap;html=1;align=left;fillColor=#fad9d5;strokeColor=#ae4132;" vertex="1" parent="1">
          <mxGeometry x="5753" y="1613" width="49" height="37" as="geometry" />
        </mxCell>
        <mxCell id="UlnXxGRV-r5DWmq6DCOY-82" style="edgeStyle=orthogonalEdgeStyle;rounded=0;orthogonalLoop=1;jettySize=auto;html=1;exitX=1;exitY=0.5;exitDx=0;exitDy=0;" edge="1" parent="1" source="UlnXxGRV-r5DWmq6DCOY-78" target="UlnXxGRV-r5DWmq6DCOY-81">
          <mxGeometry relative="1" as="geometry" />
        </mxCell>
        <mxCell id="UlnXxGRV-r5DWmq6DCOY-78" value="&lt;div&gt;1. 属性&lt;/div&gt;&lt;div&gt;2. 状态&lt;/div&gt;&lt;div&gt;3. 周期效果&lt;/div&gt;&lt;div&gt;4. 添加被动技能&lt;/div&gt;&lt;div&gt;5. 添加另一个buff&lt;/div&gt;&lt;div&gt;6. 释放另一个技能&lt;/div&gt;" style="rounded=1;whiteSpace=wrap;html=1;align=left;fillColor=none;" vertex="1" parent="1">
          <mxGeometry x="5851" y="1652" width="113" height="150" as="geometry" />
        </mxCell>
        <mxCell id="UlnXxGRV-r5DWmq6DCOY-79" value="BuffEffect" style="rounded=1;whiteSpace=wrap;html=1;align=left;fillColor=#fad9d5;strokeColor=#ae4132;" vertex="1" parent="1">
          <mxGeometry x="5857" y="1614" width="72" height="37" as="geometry" />
        </mxCell>
        <mxCell id="UlnXxGRV-r5DWmq6DCOY-85" style="edgeStyle=orthogonalEdgeStyle;rounded=0;orthogonalLoop=1;jettySize=auto;html=1;entryX=0;entryY=0.75;entryDx=0;entryDy=0;exitX=1;exitY=0.5;exitDx=0;exitDy=0;" edge="1" parent="1" source="UlnXxGRV-r5DWmq6DCOY-89" target="UlnXxGRV-r5DWmq6DCOY-65">
          <mxGeometry relative="1" as="geometry">
            <Array as="points">
              <mxPoint x="6310" y="1737" />
              <mxPoint x="6431" y="1736" />
              <mxPoint x="6431" y="1905" />
              <mxPoint x="4967" y="1905" />
              <mxPoint x="4967" y="1784" />
            </Array>
          </mxGeometry>
        </mxCell>
        <mxCell id="UlnXxGRV-r5DWmq6DCOY-90" style="edgeStyle=orthogonalEdgeStyle;rounded=0;orthogonalLoop=1;jettySize=auto;html=1;entryX=0;entryY=0.5;entryDx=0;entryDy=0;" edge="1" parent="1" source="UlnXxGRV-r5DWmq6DCOY-81" target="UlnXxGRV-r5DWmq6DCOY-89">
          <mxGeometry relative="1" as="geometry" />
        </mxCell>
        <mxCell id="UlnXxGRV-r5DWmq6DCOY-81" value="&lt;div&gt;周期效果&lt;/div&gt;" style="rounded=1;whiteSpace=wrap;html=1;align=left;fillColor=#d0cee2;strokeColor=#56517e;" vertex="1" parent="1">
          <mxGeometry x="6034" y="1697" width="96" height="65" as="geometry" />
        </mxCell>
        <mxCell id="UlnXxGRV-r5DWmq6DCOY-89" value="&lt;div&gt;timer组件&lt;/div&gt;" style="rounded=1;whiteSpace=wrap;html=1;align=left;fillColor=none;" vertex="1" parent="1">
          <mxGeometry x="6204" y="1704" width="96" height="65" as="geometry" />
        </mxCell>
        <mxCell id="UlnXxGRV-r5DWmq6DCOY-95" value="怎么选目标" style="rounded=1;whiteSpace=wrap;html=1;fillColor=#d5e8d4;gradientColor=#97d077;strokeColor=#82b366;" vertex="1" parent="1">
          <mxGeometry x="4626" y="1318" width="921" height="40" as="geometry" />
        </mxCell>
        <mxCell id="UlnXxGRV-r5DWmq6DCOY-96" value="怎么打目标" style="rounded=1;whiteSpace=wrap;html=1;fillColor=#dae8fc;gradientColor=#7ea6e0;strokeColor=#6c8ebf;" vertex="1" parent="1">
          <mxGeometry x="5547" y="1318" width="903" height="40" as="geometry" />
        </mxCell>
        <mxCell id="UlnXxGRV-r5DWmq6DCOY-97" value="1. 选我&lt;div&gt;2. 选目标&lt;/div&gt;&lt;div&gt;3. 选以我为中心的圆&lt;/div&gt;&lt;div&gt;4. 选以目标为中心的圆&lt;/div&gt;&lt;div&gt;5. 选我到目标的矩形范围&lt;/div&gt;&lt;div&gt;6. 选目标位置为中心的圆&lt;/div&gt;&lt;div&gt;7. 选我面朝前方扇形范围&lt;/div&gt;&lt;div&gt;8. 选我面朝方向矩形范围&lt;/div&gt;&lt;div&gt;9. 选我到目标扇形范围&lt;/div&gt;&lt;div&gt;10……&lt;/div&gt;" style="rounded=1;whiteSpace=wrap;html=1;align=left;fillColor=none;" vertex="1" parent="1">
          <mxGeometry x="4984" y="1799" width="153" height="176" as="geometry" />
        </mxCell>
      </root>
    </mxGraphModel>
  </diagram>
</mxfile>
